999
dxfrw 0.6.3
  0
SECTION
  2
HEADER
  9
$ACADVER
  1
AC1021
  9
$DWGCODEPAGE
  3
ANSI_1252
  9
$INSBASE
 10
0
 20
0
 30
0
  9
$EXTMIN
 10
-12.5036284336397
 20
-39.97932254318449
 30
0
  9
$EXTMAX
 10
198.3826164874552
 20
190.0067204301075
 30
0
  9
$LIMMIN
 10
0
 20
0
  9
$LIMMAX
 10
420
 20
297
  9
$ORTHOMODE
 70
    0
  9
$REGENMODE
 70
    1
  9
$FILLMODE
 70
    1
  9
$QTEXTMODE
 70
    0
  9
$MIRRTEXT
 70
    0
  9
$LTSCALE
 40
1
  9
$ATTMODE
 70
    0
  9
$TEXTSIZE
 40
2.5
  9
$TRACEWID
 40
15.68
  9
$TEXTSTYLE
  7
STANDARD
  9
$CLAYER
  8
0
  9
$CELTYPE
  6
BYLAYER
  9
$CECOLOR
 62
  256
  9
$CELTSCALE
 40
1
  9
$DISPSILH
 70
    0
  9
$DIMSCALE
 40
1
  9
$DIMASZ
 40
2.5
  9
$DIMEXO
 40
0.625
  9
$DIMDLI
 40
3.75
  9
$DIMRND
 40
0
  9
$DIMDLE
 40
0
  9
$DIMEXE
 40
1.25
  9
$DIMTP
 40
0
  9
$DIMTM
 40
0
  9
$DIMTXT
 40
2.5
  9
$DIMCEN
 40
2.5
  9
$DIMTSZ
 40
0
  9
$DIMTOL
 70
    0
  9
$DIMLIM
 70
    0
  9
$DIMTIH
 70
    0
  9
$DIMTOH
 70
    0
  9
$DIMSE1
 70
    0
  9
$DIMSE2
 70
    0
  9
$DIMTAD
 70
    1
  9
$DIMZIN
 70
    8
  9
$DIMBLK
  1

  9
$DIMASO
 70
    1
  9
$DIMSHO
 70
    1
  9
$DIMPOST
  1

  9
$DIMAPOST
  1

  9
$DIMALT
 70
    0
  9
$DIMALTD
 70
    3
  9
$DIMALTF
 40
0.03937
  9
$DIMLFAC
 40
1
  9
$DIMTOFL
 70
    1
  9
$DIMTVP
 40
0
  9
$DIMTIX
 70
    0
  9
$DIMSOXD
 70
    0
  9
$DIMSAH
 70
    0
  9
$DIMBLK1
  1

  9
$DIMBLK2
  1

  9
$DIMSTYLE
  2
STANDARD
  9
$DIMCLRD
 70
    4
  9
$DIMCLRE
 70
    4
  9
$DIMCLRT
 70
    4
  9
$DIMTFAC
 40
1
  9
$DIMGAP
 40
0.625
  9
$DIMJUST
 70
    0
  9
$DIMSD1
 70
    0
  9
$DIMSD2
 70
    0
  9
$DIMTOLJ
 70
    0
  9
$DIMTZIN
 70
    8
  9
$DIMALTZ
 70
    0
  9
$DIMALTTZ
 70
    0
  9
$DIMUPT
 70
    0
  9
$DIMDEC
 70
    1
  9
$DIMTDEC
 70
    2
  9
$DIMALTU
 70
    2
  9
$DIMALTTD
 70
    3
  9
$DIMTXSTY
  7
standard
  9
$DIMAUNIT
 70
    0
  9
$DIMADEC
 70
    1
  9
$DIMALTRND
 40
0
  9
$DIMAZIN
 70
    0
  9
$DIMDSEP
 70
   44
  9
$DIMATFIT
 70
    3
  9
$DIMFRAC
 70
    0
  9
$DIMLDRBLK
  1
STANDARD
  9
$DIMLUNIT
 70
    2
  9
$DIMLWD
 70
   -2
  9
$DIMLWE
 70
   -2
  9
$DIMTMOVE
 70
    0
  9
$DIMFXL
 40
1
  9
$DIMFXLON
 70
    0
  9
$DIMJOGANG
 40
0.7854
  9
$DIMTFILL
 70
    0
  9
$DIMTFILLCLR
 70
    0
  9
$DIMARCSYM
 70
    0
  9
$DIMLTYPE
  6

  9
$DIMLTEX1
  6

  9
$DIMLTEX2
  6

  9
$LUNITS
 70
    2
  9
$LUPREC
 70
    1
  9
$SKETCHINC
 40
1
  9
$FILLETRAD
 40
0
  9
$AUNITS
 70
    0
  9
$AUPREC
 70
    1
  9
$MENU
  1
.
  9
$ELEVATION
 40
0
  9
$PELEVATION
 40
0
  9
$THICKNESS
 40
0
  9
$LIMCHECK
 70
    0
  9
$CHAMFERA
 40
0
  9
$CHAMFERB
 40
0
  9
$CHAMFERC
 40
0
  9
$CHAMFERD
 40
0
  9
$SKPOLY
 70
    0
  9
$USRTIMER
 70
    1
  9
$ANGBASE
 50
0
  9
$ANGDIR
 70
    0
  9
$PDMODE
 70
   34
  9
$PDSIZE
 40
0
  9
$PLINEWID
 40
0
  9
$SPLFRAME
 70
    0
  9
$SPLINETYPE
 70
    2
  9
$SPLINESEGS
 70
    8
  9
$HANDSEED
  5
20000
  9
$SURFTAB1
 70
    6
  9
$SURFTAB2
 70
    6
  9
$SURFTYPE
 70
    6
  9
$SURFU
 70
    6
  9
$SURFV
 70
    6
  9
$UCSBASE
  2

  9
$UCSNAME
  2

  9
$UCSORG
 10
0
 20
0
 30
0
  9
$UCSXDIR
 10
1
 20
0
 30
0
  9
$UCSYDIR
 10
0
 20
1
 30
0
  9
$UCSORTHOREF
  2

  9
$UCSORTHOVIEW
 70
    0
  9
$UCSORGTOP
 10
0
 20
0
 30
0
  9
$UCSORGBOTTOM
 10
0
 20
0
 30
0
  9
$UCSORGLEFT
 10
0
 20
0
 30
0
  9
$UCSORGRIGHT
 10
0
 20
0
 30
0
  9
$UCSORGFRONT
 10
0
 20
0
 30
0
  9
$UCSORGBACK
 10
0
 20
0
 30
0
  9
$PUCSBASE
  2

  9
$PUCSNAME
  2

  9
$PUCSORG
 10
0
 20
0
 30
0
  9
$PUCSXDIR
 10
1
 20
0
 30
0
  9
$PUCSYDIR
 10
0
 20
1
 30
0
  9
$PUCSORTHOREF
  2

  9
$PUCSORTHOVIEW
 70
    0
  9
$PUCSORGTOP
 10
0
 20
0
 30
0
  9
$PUCSORGBOTTOM
 10
0
 20
0
 30
0
  9
$PUCSORGLEFT
 10
0
 20
0
 30
0
  9
$PUCSORGRIGHT
 10
0
 20
0
 30
0
  9
$PUCSORGFRONT
 10
0
 20
0
 30
0
  9
$PUCSORGBACK
 10
0
 20
0
 30
0
  9
$USERI1
 70
    0
  9
$USERI2
 70
    0
  9
$USERI3
 70
    0
  9
$USERI4
 70
    0
  9
$USERI5
 70
    0
  9
$USERR1
 40
0
  9
$USERR2
 40
0
  9
$USERR3
 40
0
  9
$USERR4
 40
0
  9
$USERR5
 40
0
  9
$WORLDVIEW
 70
    1
  9
$SHADEDGE
 70
    3
  9
$SHADEDIF
 70
   70
  9
$TILEMODE
 70
    1
  9
$MAXACTVP
 70
   64
  9
$PINSBASE
 10
0
 20
0
 30
0
  9
$PLIMCHECK
 70
    0
  9
$PEXTMIN
 10
0
 20
0
 30
0
  9
$PEXTMAX
 10
0
 20
0
 30
0
  9
$GRIDMODE
 70
    1
  9
$SNAPSTYLE
 70
    0
  9
$GRIDUNIT
 10
0
 20
0
  9
$PLIMMIN
 10
0
 20
0
  9
$PLIMMAX
 10
297
 20
210
  9
$UNITMODE
 70
    0
  9
$VISRETAIN
 70
    1
  9
$PLINEGEN
 70
    0
  9
$PSLTSCALE
 70
    1
  9
$TREEDEPTH
 70
 3020
  9
$CMLSTYLE
  2
Standard
  9
$CMLJUST
 70
    0
  9
$CMLSCALE
 40
20
  9
$PROXYGRAPHICS
 70
    1
  9
$MEASUREMENT
 70
    1
  9
$CELWEIGHT
370
   -1
  9
$ENDCAPS
280
    0
  9
$JOINSTYLE
280
    0
  9
$LWDISPLAY
290
    0
  9
$INSUNITS
 70
    4
  9
$HYPERLINKBASE
  1

  9
$STYLESHEET
  1

  9
$XEDIT
290
    1
  9
$CEPSNTYPE
380
    0
  9
$PSTYLEMODE
290
    1
  9
$EXTNAMES
290
    1
  9
$PSVPSCALE
 40
0
  9
$OLESTARTUP
290
    0
  9
$SORTENTS
280
  127
  9
$INDEXCTL
280
    0
  9
$HIDETEXT
280
    1
  9
$XCLIPFRAME
290
    0
  9
$HALOGAP
280
    0
  9
$OBSCOLOR
 70
  257
  9
$OBSLTYPE
280
    0
  9
$INTERSECTIONDISPLAY
280
    0
  9
$INTERSECTIONCOLOR
 70
  257
  9
$DIMASSOC
280
    1
  9
$PROJECTNAME
  1

  9
$CAMERADISPLAY
290
    0
  9
$LENSLENGTH
 40
50
  9
$CAMERAHEIGHT
 40
0
  9
$STEPSPERSEC
 40
2
  9
$STEPSIZE
 40
50
  9
$3DDWFPREC
 40
2
  9
$PSOLWIDTH
 40
5
  9
$PSOLHEIGHT
 40
80
  9
$LOFTANG1
 40
1.570796326794897
  9
$LOFTANG2
 40
1.570796326794897
  9
$LOFTMAG1
 40
0
  9
$LOFTMAG2
 40
0
  9
$LOFTPARAM
 70
    7
  9
$LOFTNORMALS
280
    1
  9
$LATITUDE
 40
1
  9
$LONGITUDE
 40
1
  9
$NORTHDIRECTION
 40
0
  9
$TIMEZONE
 70
-8000
  9
$LIGHTGLYPHDISPLAY
280
    1
  9
$TILEMODELIGHTSYNCH
280
    1
  9
$SOLIDHIST
280
    1
  9
$SHOWHIST
280
    1
  9
$DWFFRAME
280
    2
  9
$DGNFRAME
280
    0
  9
$REALWORLDSCALE
290
    1
  9
$INTERFERECOLOR
 62
    1
  9
$CSHADOW
280
    0
  9
$SHADOWPLANELOCATION
 40
0
  0
ENDSEC
  0
SECTION
  2
CLASSES
  0
ENDSEC
  0
SECTION
  2
TABLES
  0
TABLE
  2
VPORT
  5
8
330
0
100
AcDbSymbolTable
 70
    1
  0
VPORT
  5
31
330
2
100
AcDbSymbolTableRecord
100
AcDbViewportTableRecord
  2
*ACTIVE
 70
    0
 10
0
 20
0
 11
1
 21
1
 12
154.5605127508683
 22
96.44575995654179
 13
0
 23
0
 14
10
 24
10
 15
10
 25
10
 16
0
 26
0
 36
1
 17
0
 27
0
 37
0
 40
235.4815278711006
 41
1.834305717619603
 42
50
 43
0
 44
0
 50
0
 51
0
 71
    0
 72
  100
 73
    1
 74
    3
 75
    0
 76
    1
 77
    0
 78
    0
281
    0
 65
    1
110
0
120
0
130
0
111
1
121
0
131
0
112
0
122
1
132
0
 79
    0
146
0
348
10020
 60
    7
 61
    5
292
1
282
    1
141
0
142
0
 63
  250
421
3358443
  0
ENDTAB
  0
TABLE
  2
LTYPE
  5
5
330
0
100
AcDbSymbolTable
 70
    4
  0
LTYPE
  5
14
330
5
100
AcDbSymbolTableRecord
100
AcDbLinetypeTableRecord
  2
ByBlock
 70
    0
  3

 72
   65
 73
    0
 40
0
  0
LTYPE
  5
15
330
5
100
AcDbSymbolTableRecord
100
AcDbLinetypeTableRecord
  2
ByLayer
 70
    0
  3

 72
   65
 73
    0
 40
0
  0
LTYPE
  5
16
330
5
100
AcDbSymbolTableRecord
100
AcDbLinetypeTableRecord
  2
Continuous
 70
    0
  3
Solid line
 72
   65
 73
    0
 40
0
  0
LTYPE
  5
32
330
5
100
AcDbSymbolTableRecord
100
AcDbLinetypeTableRecord
  2
DOT
 70
    0
  3
Dot . . . . . . . . . . . . . . . . . . . . . .
 72
   65
 73
    2
 40
6.35
 49
0
 74
    0
 49
-6.35
 74
    0
  0
LTYPE
  5
33
330
5
100
AcDbSymbolTableRecord
100
AcDbLinetypeTableRecord
  2
DOTTINY
 70
    0
  3
Dot (.15x) .....................................
 72
   65
 73
    2
 40
0.9525
 49
0
 74
    0
 49
-0.9525
 74
    0
  0
LTYPE
  5
34
330
5
100
AcDbSymbolTableRecord
100
AcDbLinetypeTableRecord
  2
DOT2
 70
    0
  3
Dot (.5x) .....................................
 72
   65
 73
    2
 40
3.175
 49
0
 74
    0
 49
-3.175
 74
    0
  0
LTYPE
  5
35
330
5
100
AcDbSymbolTableRecord
100
AcDbLinetypeTableRecord
  2
DOTX2
 70
    0
  3
Dot (2x) .  .  .  .  .  .  .  .  .  .  .  .  .
 72
   65
 73
    2
 40
12.7
 49
0
 74
    0
 49
-12.7
 74
    0
  0
LTYPE
  5
36
330
5
100
AcDbSymbolTableRecord
100
AcDbLinetypeTableRecord
  2
DASHED
 70
    0
  3
Dashed _ _ _ _ _ _ _ _ _ _ _ _ _ _ _ _ _
 72
   65
 73
    2
 40
19.05
 49
12.7
 74
    0
 49
-6.35
 74
    0
  0
LTYPE
  5
37
330
5
100
AcDbSymbolTableRecord
100
AcDbLinetypeTableRecord
  2
DASHEDTINY
 70
    0
  3
Dashed (.15x) _ _ _ _ _ _ _ _ _ _ _ _ _ _ _ _ _
 72
   65
 73
    2
 40
2.8575
 49
1.905
 74
    0
 49
-0.9525
 74
    0
  0
LTYPE
  5
38
330
5
100
AcDbSymbolTableRecord
100
AcDbLinetypeTableRecord
  2
DASHED2
 70
    0
  3
Dashed (.5x) _ _ _ _ _ _ _ _ _ _ _ _ _ _ _ _ _
 72
   65
 73
    2
 40
9.524999999999999
 49
6.35
 74
    0
 49
-3.175
 74
    0
  0
LTYPE
  5
39
330
5
100
AcDbSymbolTableRecord
100
AcDbLinetypeTableRecord
  2
DASHEDX2
 70
    0
  3
Dashed (2x) ____  ____  ____  ____  ____  ___
 72
   65
 73
    2
 40
38.09999999999999
 49
25.4
 74
    0
 49
-12.7
 74
    0
  0
LTYPE
  5
3A
330
5
100
AcDbSymbolTableRecord
100
AcDbLinetypeTableRecord
  2
DASHDOT
 70
    0
  3
Dash dot __ . __ . __ . __ . __ . __ . __ . __
 72
   65
 73
    4
 40
25.4
 49
12.7
 74
    0
 49
-6.35
 74
    0
 49
0
 74
    0
 49
-6.35
 74
    0
  0
LTYPE
  5
3B
330
5
100
AcDbSymbolTableRecord
100
AcDbLinetypeTableRecord
  2
DASHDOTTINY
 70
    0
  3
Dash dot (.15x) _._._._._._._._._._._._._._._.
 72
   65
 73
    4
 40
3.81
 49
1.905
 74
    0
 49
-0.9525
 74
    0
 49
0
 74
    0
 49
-0.9525
 74
    0
  0
LTYPE
  5
3C
330
5
100
AcDbSymbolTableRecord
100
AcDbLinetypeTableRecord
  2
DASHDOT2
 70
    0
  3
Dash dot (.5x) _._._._._._._._._._._._._._._.
 72
   65
 73
    4
 40
12.7
 49
6.35
 74
    0
 49
-3.175
 74
    0
 49
0
 74
    0
 49
-3.175
 74
    0
  0
LTYPE
  5
3D
330
5
100
AcDbSymbolTableRecord
100
AcDbLinetypeTableRecord
  2
DASHDOTX2
 70
    0
  3
Dash dot (2x) ____  .  ____  .  ____  .  ___
 72
   65
 73
    4
 40
50.8
 49
25.4
 74
    0
 49
-12.7
 74
    0
 49
0
 74
    0
 49
-12.7
 74
    0
  0
LTYPE
  5
3E
330
5
100
AcDbSymbolTableRecord
100
AcDbLinetypeTableRecord
  2
DIVIDE
 70
    0
  3
Divide ____ . . ____ . . ____ . . ____ . . ____
 72
   65
 73
    6
 40
31.75
 49
12.7
 74
    0
 49
-6.35
 74
    0
 49
0
 74
    0
 49
-6.35
 74
    0
 49
0
 74
    0
 49
-6.35
 74
    0
  0
LTYPE
  5
3F
330
5
100
AcDbSymbolTableRecord
100
AcDbLinetypeTableRecord
  2
DIVIDETINY
 70
    0
  3
Divide (.15x) __..__..__..__..__..__..__..__.._
 72
   65
 73
    6
 40
4.7625
 49
1.905
 74
    0
 49
-0.9525
 74
    0
 49
0
 74
    0
 49
-0.9525
 74
    0
 49
0
 74
    0
 49
-0.9525
 74
    0
  0
LTYPE
  5
40
330
5
100
AcDbSymbolTableRecord
100
AcDbLinetypeTableRecord
  2
DIVIDE2
 70
    0
  3
Divide (.5x) __..__..__..__..__..__..__..__.._
 72
   65
 73
    6
 40
15.875
 49
6.35
 74
    0
 49
-3.175
 74
    0
 49
0
 74
    0
 49
-3.175
 74
    0
 49
0
 74
    0
 49
-3.175
 74
    0
  0
LTYPE
  5
41
330
5
100
AcDbSymbolTableRecord
100
AcDbLinetypeTableRecord
  2
DIVIDEX2
 70
    0
  3
Divide (2x) ________  .  .  ________  .  .  _
 72
   65
 73
    6
 40
63.5
 49
25.4
 74
    0
 49
-12.7
 74
    0
 49
0
 74
    0
 49
-12.7
 74
    0
 49
0
 74
    0
 49
-12.7
 74
    0
  0
LTYPE
  5
42
330
5
100
AcDbSymbolTableRecord
100
AcDbLinetypeTableRecord
  2
BORDER
 70
    0
  3
Border __ __ . __ __ . __ __ . __ __ . __ __ .
 72
   65
 73
    6
 40
44.45
 49
12.7
 74
    0
 49
-6.35
 74
    0
 49
12.7
 74
    0
 49
-6.35
 74
    0
 49
0
 74
    0
 49
-6.35
 74
    0
  0
LTYPE
  5
43
330
5
100
AcDbSymbolTableRecord
100
AcDbLinetypeTableRecord
  2
BORDERTINY
 70
    0
  3
Border (.15x) __.__.__.__.__.__.__.__.__.__.__.
 72
   65
 73
    6
 40
6.6675
 49
1.905
 74
    0
 49
-0.9525
 74
    0
 49
1.905
 74
    0
 49
-0.9525
 74
    0
 49
0
 74
    0
 49
-0.9525
 74
    0
  0
LTYPE
  5
44
330
5
100
AcDbSymbolTableRecord
100
AcDbLinetypeTableRecord
  2
BORDER2
 70
    0
  3
Border (.5x) __.__.__.__.__.__.__.__.__.__.__.
 72
   65
 73
    6
 40
22.225
 49
6.35
 74
    0
 49
-3.175
 74
    0
 49
6.35
 74
    0
 49
-3.175
 74
    0
 49
0
 74
    0
 49
-3.175
 74
    0
  0
LTYPE
  5
45
330
5
100
AcDbSymbolTableRecord
100
AcDbLinetypeTableRecord
  2
BORDERX2
 70
    0
  3
Border (2x) ____  ____  .  ____  ____  .  ___
 72
   65
 73
    6
 40
88.89999999999999
 49
25.4
 74
    0
 49
-12.7
 74
    0
 49
25.4
 74
    0
 49
-12.7
 74
    0
 49
0
 74
    0
 49
-12.7
 74
    0
  0
LTYPE
  5
46
330
5
100
AcDbSymbolTableRecord
100
AcDbLinetypeTableRecord
  2
CENTER
 70
    0
  3
Center ____ _ ____ _ ____ _ ____ _ ____ _ ____
 72
   65
 73
    4
 40
50.8
 49
31.75
 74
    0
 49
-6.35
 74
    0
 49
6.35
 74
    0
 49
-6.35
 74
    0
  0
LTYPE
  5
47
330
5
100
AcDbSymbolTableRecord
100
AcDbLinetypeTableRecord
  2
CENTERTINY
 70
    0
  3
Center (.15x) ___ _ ___ _ ___ _ ___ _ ___ _ ___
 72
   65
 73
    4
 40
7.619999999999999
 49
4.7625
 74
    0
 49
-0.9525
 74
    0
 49
0.9525
 74
    0
 49
-0.9525
 74
    0
  0
LTYPE
  5
48
330
5
100
AcDbSymbolTableRecord
100
AcDbLinetypeTableRecord
  2
CENTER2
 70
    0
  3
Center (.5x) ___ _ ___ _ ___ _ ___ _ ___ _ ___
 72
   65
 73
    4
 40
28.575
 49
19.05
 74
    0
 49
-3.175
 74
    0
 49
3.175
 74
    0
 49
-3.175
 74
    0
  0
LTYPE
  5
49
330
5
100
AcDbSymbolTableRecord
100
AcDbLinetypeTableRecord
  2
CENTERX2
 70
    0
  3
Center (2x) ________  __  ________  __  _____
 72
   65
 73
    4
 40
101.6
 49
63.5
 74
    0
 49
-12.7
 74
    0
 49
12.7
 74
    0
 49
-12.7
 74
    0
  0
ENDTAB
  0
TABLE
  2
LAYER
  5
2
330
0
100
AcDbSymbolTable
 70
    1
  0
LAYER
  5
10
330
2
100
AcDbSymbolTableRecord
100
AcDbLayerTableRecord
  2
0
 70
    0
 62
    7
  6
CONTINUOUS
290
0
370
    0
390
F
  0
LAYER
  5
4A
330
2
100
AcDbSymbolTableRecord
100
AcDbLayerTableRecord
  2
1 - Spacer
 70
    0
 62
    7
  6
CONTINUOUS
370
    0
390
F
  0
LAYER
  5
4B
330
2
100
AcDbSymbolTableRecord
100
AcDbLayerTableRecord
  2
2 - panels
 70
    0
 62
    7
  6
CONTINUOUS
370
    0
390
F
  0
ENDTAB
  0
TABLE
  2
STYLE
  5
3
330
0
100
AcDbSymbolTable
 70
    3
  0
STYLE
  5
4C
330
2
100
AcDbSymbolTableRecord
100
AcDbTextStyleTableRecord
  2
Standard
 70
    0
 40
0
 41
1
 50
0
 71
    0
 42
1
  3
txt
  4

  0
ENDTAB
  0
TABLE
  2
VIEW
  5
6
330
0
100
AcDbSymbolTable
 70
    0
  0
ENDTAB
  0
TABLE
  2
UCS
  5
7
330
0
100
AcDbSymbolTable
 70
    0
  0
ENDTAB
  0
TABLE
  2
APPID
  5
9
330
0
100
AcDbSymbolTable
 70
    1
  0
APPID
  5
12
330
9
100
AcDbSymbolTableRecord
100
AcDbRegAppTableRecord
  2
ACAD
 70
    0
  0
APPID
  5
4D
330
9
100
AcDbSymbolTableRecord
100
AcDbRegAppTableRecord
  2
LibreCad
 70
    0
  0
ENDTAB
  0
TABLE
  2
DIMSTYLE
  5
A
330
0
100
AcDbSymbolTable
 70
    1
100
AcDbDimStyleTable
 71
    1
  0
DIMSTYLE
105
4E
330
A
100
AcDbSymbolTableRecord
100
AcDbDimStyleTableRecord
  2
Standard
 70
    0
 40
1
 41
2.5
 42
0.625
 43
0.38
 44
1.25
 45
0
 46
0
 47
0
 48
0
 49
1
140
2.5
141
0.09
142
0
143
25.4
144
1
145
0
146
1
147
0.625
148
0
 71
    0
 72
    0
 73
    0
 74
    1
 75
    0
 76
    0
 77
    0
 78
    8
 79
    0
170
    0
171
    2
172
    0
173
    0
174
    0
175
    0
176
    4
177
    4
178
    4
179
    1
271
    1
272
    4
273
    2
274
    2
275
    0
276
    0
277
    2
278
   44
279
    0
280
    0
281
    0
282
    0
283
    1
284
    0
285
    0
286
    0
288
    0
289
    3
340
standard
341

371
   -2
372
   -2
  0
ENDTAB
  0
TABLE
  2
BLOCK_RECORD
  5
1
330
0
100
AcDbSymbolTable
 70
    2
  0
BLOCK_RECORD
  5
1F
330
1
100
AcDbSymbolTableRecord
100
AcDbBlockTableRecord
  2
*Model_Space
 70
    0
280
    1
281
    0
  0
BLOCK_RECORD
  5
1E
330
1
100
AcDbSymbolTableRecord
100
AcDbBlockTableRecord
  2
*Paper_Space
 70
    0
280
    1
281
    0
  0
BLOCK_RECORD
  5
4F
330
1
100
AcDbSymbolTableRecord
100
AcDbBlockTableRecord
  2
*D10
 70
    0
280
    1
281
    0
  0
BLOCK_RECORD
  5
52
330
1
100
AcDbSymbolTableRecord
100
AcDbBlockTableRecord
  2
*D2
 70
    0
280
    1
281
    0
  0
BLOCK_RECORD
  5
55
330
1
100
AcDbSymbolTableRecord
100
AcDbBlockTableRecord
  2
*D3
 70
    0
280
    1
281
    0
  0
BLOCK_RECORD
  5
58
330
1
100
AcDbSymbolTableRecord
100
AcDbBlockTableRecord
  2
*D20
 70
    0
280
    1
281
    0
  0
BLOCK_RECORD
  5
5B
330
1
100
AcDbSymbolTableRecord
100
AcDbBlockTableRecord
  2
*D22
 70
    0
280
    1
281
    0
  0
BLOCK_RECORD
  5
5E
330
1
100
AcDbSymbolTableRecord
100
AcDbBlockTableRecord
  2
*D14
 70
    0
280
    1
281
    0
  0
BLOCK_RECORD
  5
61
330
1
100
AcDbSymbolTableRecord
100
AcDbBlockTableRecord
  2
*D16
 70
    0
280
    1
281
    0
  0
BLOCK_RECORD
  5
64
330
1
100
AcDbSymbolTableRecord
100
AcDbBlockTableRecord
  2
*D1
 70
    0
280
    1
281
    0
  0
BLOCK_RECORD
  5
67
330
1
100
AcDbSymbolTableRecord
100
AcDbBlockTableRecord
  2
*D6
 70
    0
280
    1
281
    0
  0
BLOCK_RECORD
  5
6A
330
1
100
AcDbSymbolTableRecord
100
AcDbBlockTableRecord
  2
*D9
 70
    0
280
    1
281
    0
  0
BLOCK_RECORD
  5
6D
330
1
100
AcDbSymbolTableRecord
100
AcDbBlockTableRecord
  2
*D5
 70
    0
280
    1
281
    0
  0
BLOCK_RECORD
  5
70
330
1
100
AcDbSymbolTableRecord
100
AcDbBlockTableRecord
  2
*D24
 70
    0
280
    1
281
    0
  0
BLOCK_RECORD
  5
73
330
1
100
AcDbSymbolTableRecord
100
AcDbBlockTableRecord
  2
*D15
 70
    0
280
    1
281
    0
  0
BLOCK_RECORD
  5
76
330
1
100
AcDbSymbolTableRecord
100
AcDbBlockTableRecord
  2
*D21
 70
    0
280
    1
281
    0
  0
BLOCK_RECORD
  5
79
330
1
100
AcDbSymbolTableRecord
100
AcDbBlockTableRecord
  2
*D7
 70
    0
280
    1
281
    0
  0
BLOCK_RECORD
  5
7C
330
1
100
AcDbSymbolTableRecord
100
AcDbBlockTableRecord
  2
*D8
 70
    0
280
    1
281
    0
  0
BLOCK_RECORD
  5
7F
330
1
100
AcDbSymbolTableRecord
100
AcDbBlockTableRecord
  2
*D13
 70
    0
280
    1
281
    0
  0
BLOCK_RECORD
  5
82
330
1
100
AcDbSymbolTableRecord
100
AcDbBlockTableRecord
  2
*D11
 70
    0
280
    1
281
    0
  0
BLOCK_RECORD
  5
85
330
1
100
AcDbSymbolTableRecord
100
AcDbBlockTableRecord
  2
*D4
 70
    0
280
    1
281
    0
  0
BLOCK_RECORD
  5
88
330
1
100
AcDbSymbolTableRecord
100
AcDbBlockTableRecord
  2
*D19
 70
    0
280
    1
281
    0
  0
BLOCK_RECORD
  5
8B
330
1
100
AcDbSymbolTableRecord
100
AcDbBlockTableRecord
  2
*D12
 70
    0
280
    1
281
    0
  0
BLOCK_RECORD
  5
8E
330
1
100
AcDbSymbolTableRecord
100
AcDbBlockTableRecord
  2
*D17
 70
    0
280
    1
281
    0
  0
BLOCK_RECORD
  5
91
330
1
100
AcDbSymbolTableRecord
100
AcDbBlockTableRecord
  2
*D18
 70
    0
280
    1
281
    0
  0
BLOCK_RECORD
  5
94
330
1
100
AcDbSymbolTableRecord
100
AcDbBlockTableRecord
  2
*D23
 70
    0
280
    1
281
    0
  0
ENDTAB
  0
ENDSEC
  0
SECTION
  2
BLOCKS
  0
BLOCK
  5
20
330
1F
100
AcDbEntity
  8
0
100
AcDbBlockBegin
  2
*Model_Space
 70
    0
 10
0
 20
0
 30
0
  3
*Model_Space
  1

  0
ENDBLK
  5
21
330
1F
100
AcDbEntity
  8
0
100
AcDbBlockEnd
  0
BLOCK
  5
1C
330
1B
100
AcDbEntity
  8
0
100
AcDbBlockBegin
  2
*Paper_Space
 70
    0
 10
0
 20
0
 30
0
  3
*Paper_Space
  1

  0
ENDBLK
  5
1D
330
1F
100
AcDbEntity
  8
0
100
AcDbBlockEnd
  0
BLOCK
  5
50
330
4F
100
AcDbEntity
  8
0
100
AcDbBlockBegin
  2
*D10
 70
    1
 10
0
 20
0
  3
*D10
  1

  0
LINE
  5
97
100
AcDbEntity
  8
0
  6
ByBlock
 62
    4
370
   -2
100
AcDbLine
 10
4.574940699336434
 20
135
 11
4.574940699336436
 21
165
  0
SOLID
  5
98
100
AcDbEntity
  8
0
  6
ByBlock
 62
    4
370
   -2
100
AcDbTrace
 10
4.574940699336434
 20
135
 30
0
 11
4.158656041563594
 21
137.5
 31
0
 12
4.991225357109275
 22
137.5
 32
0
 13
4.991225357109275
 23
137.5
 33
0
  0
SOLID
  5
99
100
AcDbEntity
  8
0
  6
ByBlock
 62
    4
370
   -2
100
AcDbTrace
 10
4.574940699336436
 20
165
 30
0
 11
4.991225357109276
 21
162.5
 31
0
 12
4.158656041563595
 22
162.5
 32
0
 13
4.158656041563595
 23
162.5
 33
0
  0
MTEXT
  5
9A
100
AcDbEntity
  8
0
  6
CONTINUOUS
 62
    4
370
   -2
100
AcDbMText
 10
2.699940699336435
 20
150
 30
0
 40
2.5
 41
3.055555555555711
 71
    5
 72
    1
  1
30
  7
standard
210
0
220
0
230
1
 50
90
 73
    2
 44
1
  0
LINE
  5
9B
100
AcDbEntity
  8
0
  6
ByBlock
 62
    4
370
   -2
100
AcDbLine
 10
14.375
 20
135
 11
3.324940699336434
 21
135
  0
LINE
  5
9C
100
AcDbEntity
  8
0
  6
ByBlock
 62
    4
370
   -2
100
AcDbLine
 10
14.375
 20
165
 11
3.324940699336436
 21
165
  0
ENDBLK
  5
51
330
4F
100
AcDbEntity
  8
0
100
AcDbBlockEnd
  0
BLOCK
  5
53
330
52
100
AcDbEntity
  8
0
100
AcDbBlockBegin
  2
*D2
 70
    1
 10
0
 20
0
  3
*D2
  1

  0
LINE
  5
9D
100
AcDbEntity
  8
0
  6
ByBlock
 62
    4
370
   -2
100
AcDbLine
 10
-9.378628433639703
 20
0
 11
-9.378628433639694
 21
180
  0
SOLID
  5
9E
100
AcDbEntity
  8
0
  6
ByBlock
 62
    4
370
   -2
100
AcDbTrace
 10
-9.378628433639703
 20
0
 30
0
 11
-9.794913091412543
 21
2.5
 31
0
 12
-8.962343775866861
 22
2.5
 32
0
 13
-8.962343775866861
 23
2.5
 33
0
  0
SOLID
  5
9F
100
AcDbEntity
  8
0
  6
ByBlock
 62
    4
370
   -2
100
AcDbTrace
 10
-9.378628433639694
 20
180
 30
0
 11
-8.962343775866854
 21
177.5
 31
0
 12
-9.794913091412534
 22
177.5
 32
0
 13
-9.794913091412534
 23
177.5
 33
0
  0
MTEXT
  5
A0
100
AcDbEntity
  8
0
  6
CONTINUOUS
 62
    4
370
   -2
100
AcDbMText
 10
-11.2536284336397
 20
90
 30
0
 40
2.5
 41
4.444444444444445
 71
    5
 72
    1
  1
180
  7
standard
210
0
220
0
230
1
 50
90
 73
    2
 44
1
  0
LINE
  5
A1
100
AcDbEntity
  8
0
  6
ByBlock
 62
    4
370
   -2
100
AcDbLine
 10
-0.625
 20
7.654042494670958e-17
 11
-10.6286284336397
 21
1.530808498934192e-16
  0
LINE
  5
A2
100
AcDbEntity
  8
0
  6
ByBlock
 62
    4
370
   -2
100
AcDbLine
 10
-0.625
 20
180
 11
-10.62862843363969
 21
180
  0
ENDBLK
  5
54
330
52
100
AcDbEntity
  8
0
100
AcDbBlockEnd
  0
BLOCK
  5
56
330
55
100
AcDbEntity
  8
0
100
AcDbBlockBegin
  2
*D3
 70
    1
 10
0
 20
0
  3
*D3
  1

  0
LINE
  5
A3
100
AcDbEntity
  8
0
  6
ByBlock
 62
    4
370
   -2
100
AcDbLine
 10
4.574940699336434
 20
135
 11
4.574940699336436
 21
165
  0
SOLID
  5
A4
100
AcDbEntity
  8
0
  6
ByBlock
 62
    4
370
   -2
100
AcDbTrace
 10
4.574940699336434
 20
135
 30
0
 11
4.158656041563594
 21
137.5
 31
0
 12
4.991225357109275
 22
137.5
 32
0
 13
4.991225357109275
 23
137.5
 33
0
  0
SOLID
  5
A5
100
AcDbEntity
  8
0
  6
ByBlock
 62
    4
370
   -2
100
AcDbTrace
 10
4.574940699336436
 20
165
 30
0
 11
4.991225357109276
 21
162.5
 31
0
 12
4.158656041563595
 22
162.5
 32
0
 13
4.158656041563595
 23
162.5
 33
0
  0
MTEXT
  5
A6
100
AcDbEntity
  8
0
  6
CONTINUOUS
 62
    4
370
   -2
100
AcDbMText
 10
2.699940699336435
 20
150
 30
0
 40
2.5
 41
3.055555555555711
 71
    5
 72
    1
  1
30
  7
standard
210
0
220
0
230
1
 50
90
 73
    2
 44
1
  0
LINE
  5
A7
100
AcDbEntity
  8
0
  6
ByBlock
 62
    4
370
   -2
100
AcDbLine
 10
14.375
 20
135
 11
3.324940699336434
 21
135
  0
LINE
  5
A8
100
AcDbEntity
  8
0
  6
ByBlock
 62
    4
370
   -2
100
AcDbLine
 10
14.375
 20
165
 11
3.324940699336436
 21
165
  0
ENDBLK
  5
57
330
55
100
AcDbEntity
  8
0
100
AcDbBlockEnd
  0
BLOCK
  5
59
330
58
100
AcDbEntity
  8
0
100
AcDbBlockBegin
  2
*D20
 70
    1
 10
0
 20
0
  3
*D20
  1

  0
LINE
  5
A9
100
AcDbEntity
  8
2 - panels
  6
ByBlock
 62
    4
370
   -2
100
AcDbLine
 10
196.8697729988053
 20
2
 11
196.8697729988053
 21
58
  0
SOLID
  5
AA
100
AcDbEntity
  8
2 - panels
  6
ByBlock
 62
    4
370
   -2
100
AcDbTrace
 10
196.8697729988053
 20
2
 30
0
 11
196.4534883410325
 21
4.5
 31
0
 12
197.2860576565782
 22
4.5
 32
0
 13
197.2860576565782
 23
4.5
 33
0
  0
SOLID
  5
AB
100
AcDbEntity
  8
2 - panels
  6
ByBlock
 62
    4
370
   -2
100
AcDbTrace
 10
196.8697729988053
 20
58
 30
0
 11
197.2860576565782
 21
55.5
 31
0
 12
196.4534883410325
 22
55.5
 32
0
 13
196.4534883410325
 23
55.5
 33
0
  0
MTEXT
  5
AC
100
AcDbEntity
  8
2 - panels
  6
CONTINUOUS
 62
    4
370
   -2
100
AcDbMText
 10
194.9947729988053
 20
30
 30
0
 40
2.5
 41
3.055555555555866
 71
    5
 72
    1
  1
56
  7
standard
210
0
220
0
230
1
 50
90
 73
    2
 44
1
  0
LINE
  5
AD
100
AcDbEntity
  8
2 - panels
  6
ByBlock
 62
    4
370
   -2
100
AcDbLine
 10
178.625
 20
2
 11
198.1197729988053
 21
2
  0
LINE
  5
AE
100
AcDbEntity
  8
2 - panels
  6
ByBlock
 62
    4
370
   -2
100
AcDbLine
 10
178.625
 20
58
 11
198.1197729988053
 21
58
  0
ENDBLK
  5
5A
330
58
100
AcDbEntity
  8
0
100
AcDbBlockEnd
  0
BLOCK
  5
5C
330
5B
100
AcDbEntity
  8
0
100
AcDbBlockBegin
  2
*D22
 70
    1
 10
0
 20
0
  3
*D22
  1

  0
LINE
  5
AF
100
AcDbEntity
  8
2 - panels
  6
ByBlock
 62
    4
370
   -2
100
AcDbLine
 10
122
 20
186.8817204301075
 11
178
 21
186.8817204301075
  0
SOLID
  5
B0
100
AcDbEntity
  8
2 - panels
  6
ByBlock
 62
    4
370
   -2
100
AcDbTrace
 10
122
 20
186.8817204301075
 30
0
 11
124.5
 21
187.2980050878803
 31
0
 12
124.5
 22
186.4654357723346
 32
0
 13
124.5
 23
186.4654357723346
 33
0
  0
SOLID
  5
B1
100
AcDbEntity
  8
2 - panels
  6
ByBlock
 62
    4
370
   -2
100
AcDbTrace
 10
178
 20
186.8817204301075
 30
0
 11
175.5
 21
186.4654357723346
 31
0
 12
175.5
 22
187.2980050878803
 32
0
 13
175.5
 23
187.2980050878803
 33
0
  0
MTEXT
  5
B2
100
AcDbEntity
  8
2 - panels
  6
CONTINUOUS
 62
    4
370
   -2
100
AcDbMText
 10
150
 20
188.7567204301075
 30
0
 40
2.5
 41
3.055555555555866
 71
    5
 72
    1
  1
56
  7
standard
210
0
220
0
230
1
 50
0
 73
    2
 44
1
  0
LINE
  5
B3
100
AcDbEntity
  8
2 - panels
  6
ByBlock
 62
    4
370
   -2
100
AcDbLine
 10
122
 20
178.625
 11
122
 21
188.1317204301075
  0
LINE
  5
B4
100
AcDbEntity
  8
2 - panels
  6
ByBlock
 62
    4
370
   -2
100
AcDbLine
 10
178
 20
178.625
 11
178
 21
188.1317204301075
  0
ENDBLK
  5
5D
330
5B
100
AcDbEntity
  8
0
100
AcDbBlockEnd
  0
BLOCK
  5
5F
330
5E
100
AcDbEntity
  8
0
100
AcDbBlockBegin
  2
*D14
 70
    1
 10
0
 20
0
  3
*D14
  1

  0
LINE
  5
B5
100
AcDbEntity
  8
0
  6
ByBlock
 62
    4
370
   -2
100
AcDbLine
 10
25.61966791628404
 20
0
 11
25.61966791628404
 21
15
  0
SOLID
  5
B6
100
AcDbEntity
  8
0
  6
ByBlock
 62
    4
370
   -2
100
AcDbTrace
 10
25.61966791628404
 20
0
 30
0
 11
25.2033832585112
 21
2.5
 31
0
 12
26.03595257405688
 22
2.5
 32
0
 13
26.03595257405688
 23
2.5
 33
0
  0
SOLID
  5
B7
100
AcDbEntity
  8
0
  6
ByBlock
 62
    4
370
   -2
100
AcDbTrace
 10
25.61966791628404
 20
15
 30
0
 11
26.03595257405688
 21
12.5
 31
0
 12
25.2033832585112
 22
12.5
 32
0
 13
25.2033832585112
 23
12.5
 33
0
  0
MTEXT
  5
B8
100
AcDbEntity
  8
0
  6
CONTINUOUS
 62
    4
370
   -2
100
AcDbMText
 10
23.74466791628404
 20
7.5
 30
0
 40
2.5
 41
2.500000000000155
 71
    5
 72
    1
  1
15
  7
standard
210
0
220
0
230
1
 50
90
 73
    2
 44
1
  0
LINE
  5
B9
100
AcDbEntity
  8
0
  6
ByBlock
 62
    4
370
   -2
100
AcDbLine
 10
15.625
 20
0
 11
26.86966791628404
 21
0
  0
LINE
  5
BA
100
AcDbEntity
  8
0
  6
ByBlock
 62
    4
370
   -2
100
AcDbLine
 10
15.625
 20
15
 11
26.86966791628404
 21
15
  0
ENDBLK
  5
60
330
5E
100
AcDbEntity
  8
0
100
AcDbBlockEnd
  0
BLOCK
  5
62
330
61
100
AcDbEntity
  8
0
100
AcDbBlockBegin
  2
*D16
 70
    1
 10
0
 20
0
  3
*D16
  1

  0
LINE
  5
BB
100
AcDbEntity
  8
2 - panels
  6
ByBlock
 62
    4
370
   -2
100
AcDbLine
 10
36.33799950230102
 20
25.00302617798906
 11
53.66200049769898
 21
34.99697382201094
  0
SOLID
  5
BC
100
AcDbEntity
  8
2 - panels
  6
ByBlock
 62
    4
370
   -2
100
AcDbTrace
 10
36.33799950230102
 20
25.00302617798906
 30
0
 11
38.2954832729862
 21
26.61285542477307
 31
0
 12
38.71151598046533
 22
25.89168384221052
 32
0
 13
38.71151598046533
 23
25.89168384221052
 33
0
  0
SOLID
  5
BD
100
AcDbEntity
  8
2 - panels
  6
ByBlock
 62
    4
370
   -2
100
AcDbTrace
 10
53.66200049769898
 20
34.99697382201094
 30
0
 11
51.7045167270138
 21
33.38714457522693
 31
0
 12
51.28848401953467
 22
34.10831615778949
 32
0
 13
51.28848401953467
 23
34.10831615778949
 33
0
  0
MTEXT
  5
BE
100
AcDbEntity
  8
2 - panels
  6
CONTINUOUS
 62
    4
370
   -2
100
AcDbMText
 10
44.06306740837295
 20
31.62412509331856
 30
0
 40
2.5
 41
3.055555555555556
 71
    5
 72
    1
  1
20
  7
standard
210
0
220
0
230
1
 50
29.97998098634231
 73
    2
 44
1
  0
ENDBLK
  5
63
330
61
100
AcDbEntity
  8
0
100
AcDbBlockEnd
  0
BLOCK
  5
65
330
64
100
AcDbEntity
  8
0
100
AcDbBlockBegin
  2
*D1
 70
    1
 10
0
 20
0
  3
*D1
  1

  0
LINE
  5
BF
100
AcDbEntity
  8
0
  6
ByBlock
 62
    4
370
   -2
100
AcDbLine
 10
0
 20
8.172043010752692
 11
15
 21
8.172043010752692
  0
SOLID
  5
C0
100
AcDbEntity
  8
0
  6
ByBlock
 62
    4
370
   -2
100
AcDbTrace
 10
0
 20
8.172043010752692
 30
0
 11
2.5
 21
8.588327668525531
 31
0
 12
2.5
 22
7.755758352979851
 32
0
 13
2.5
 23
7.755758352979851
 33
0
  0
SOLID
  5
C1
100
AcDbEntity
  8
0
  6
ByBlock
 62
    4
370
   -2
100
AcDbTrace
 10
15
 20
8.172043010752692
 30
0
 11
12.5
 21
7.755758352979851
 31
0
 12
12.5
 22
8.588327668525531
 32
0
 13
12.5
 23
8.588327668525531
 33
0
  0
MTEXT
  5
C2
100
AcDbEntity
  8
0
  6
CONTINUOUS
 62
    4
370
   -2
100
AcDbMText
 10
7.5
 20
10.04704301075269
 30
0
 40
2.5
 41
2.500000000000155
 71
    5
 72
    1
  1
15
  7
standard
210
0
220
0
230
1
 50
0
 73
    2
 44
1
  0
LINE
  5
C3
100
AcDbEntity
  8
0
  6
ByBlock
 62
    4
370
   -2
100
AcDbLine
 10
-1.148106374200643e-16
 20
14.375
 11
-2.296212748401287e-16
 21
6.922043010752692
  0
LINE
  5
C4
100
AcDbEntity
  8
0
  6
ByBlock
 62
    4
370
   -2
100
AcDbLine
 10
15
 20
14.375
 11
15
 21
6.922043010752692
  0
ENDBLK
  5
66
330
64
100
AcDbEntity
  8
0
100
AcDbBlockEnd
  0
BLOCK
  5
68
330
67
100
AcDbEntity
  8
0
100
AcDbBlockBegin
  2
*D6
 70
    1
 10
0
 20
0
  3
*D6
  1

  0
LINE
  5
C5
100
AcDbEntity
  8
0
  6
ByBlock
 62
    4
370
   -2
100
AcDbLine
 10
58.10174688157274
 20
0
 11
58.10174688157274
 21
30
  0
SOLID
  5
C6
100
AcDbEntity
  8
0
  6
ByBlock
 62
    4
370
   -2
100
AcDbTrace
 10
58.10174688157274
 20
0
 30
0
 11
57.6854622237999
 21
2.5
 31
0
 12
58.51803153934558
 22
2.5
 32
0
 13
58.51803153934558
 23
2.5
 33
0
  0
SOLID
  5
C7
100
AcDbEntity
  8
0
  6
ByBlock
 62
    4
370
   -2
100
AcDbTrace
 10
58.10174688157274
 20
30
 30
0
 11
58.51803153934558
 21
27.5
 31
0
 12
57.6854622237999
 22
27.5
 32
0
 13
57.6854622237999
 23
27.5
 33
0
  0
MTEXT
  5
C8
100
AcDbEntity
  8
0
  6
CONTINUOUS
 62
    4
370
   -2
100
AcDbMText
 10
56.22674688157274
 20
15
 30
0
 40
2.5
 41
3.055555555555711
 71
    5
 72
    1
  1
30
  7
standard
210
0
220
0
230
1
 50
90
 73
    2
 44
1
  0
LINE
  5
C9
100
AcDbEntity
  8
0
  6
ByBlock
 62
    4
370
   -2
100
AcDbLine
 10
45.625
 20
0
 11
59.35174688157274
 21
0
  0
LINE
  5
CA
100
AcDbEntity
  8
0
  6
ByBlock
 62
    4
370
   -2
100
AcDbLine
 10
45.625
 20
30
 11
59.35174688157274
 21
30
  0
ENDBLK
  5
69
330
67
100
AcDbEntity
  8
0
100
AcDbBlockEnd
  0
BLOCK
  5
6B
330
6A
100
AcDbEntity
  8
0
100
AcDbBlockBegin
  2
*D9
 70
    1
 10
0
 20
0
  3
*D9
  1

  0
LINE
  5
CB
100
AcDbEntity
  8
0
  6
ByBlock
 62
    4
370
   -2
100
AcDbLine
 10
-9.378628433639703
 20
0
 11
-9.378628433639694
 21
180
  0
SOLID
  5
CC
100
AcDbEntity
  8
0
  6
ByBlock
 62
    4
370
   -2
100
AcDbTrace
 10
-9.378628433639703
 20
0
 30
0
 11
-9.794913091412543
 21
2.5
 31
0
 12
-8.962343775866861
 22
2.5
 32
0
 13
-8.962343775866861
 23
2.5
 33
0
  0
SOLID
  5
CD
100
AcDbEntity
  8
0
  6
ByBlock
 62
    4
370
   -2
100
AcDbTrace
 10
-9.378628433639694
 20
180
 30
0
 11
-8.962343775866854
 21
177.5
 31
0
 12
-9.794913091412534
 22
177.5
 32
0
 13
-9.794913091412534
 23
177.5
 33
0
  0
MTEXT
  5
CE
100
AcDbEntity
  8
0
  6
CONTINUOUS
 62
    4
370
   -2
100
AcDbMText
 10
-11.2536284336397
 20
90
 30
0
 40
2.5
 41
4.444444444444445
 71
    5
 72
    1
  1
180
  7
standard
210
0
220
0
230
1
 50
90
 73
    2
 44
1
  0
LINE
  5
CF
100
AcDbEntity
  8
0
  6
ByBlock
 62
    4
370
   -2
100
AcDbLine
 10
-0.625
 20
7.654042494670958e-17
 11
-10.6286284336397
 21
1.530808498934192e-16
  0
LINE
  5
D0
100
AcDbEntity
  8
0
  6
ByBlock
 62
    4
370
   -2
100
AcDbLine
 10
-0.625
 20
180
 11
-10.62862843363969
 21
180
  0
ENDBLK
  5
6C
330
6A
100
AcDbEntity
  8
0
100
AcDbBlockEnd
  0
BLOCK
  5
6E
330
6D
100
AcDbEntity
  8
0
100
AcDbBlockBegin
  2
*D5
 70
    1
 10
0
 20
0
  3
*D5
  1

  0
LINE
  5
D1
100
AcDbEntity
  8
0
  6
ByBlock
 62
    4
370
   -2
100
AcDbLine
 10
0
 20
26.76340309111815
 11
45
 21
26.76340309111815
  0
SOLID
  5
D2
100
AcDbEntity
  8
0
  6
ByBlock
 62
    4
370
   -2
100
AcDbTrace
 10
0
 20
26.76340309111815
 30
0
 11
2.5
 21
27.17968774889099
 31
0
 12
2.5
 22
26.34711843334531
 32
0
 13
2.5
 23
26.34711843334531
 33
0
  0
SOLID
  5
D3
100
AcDbEntity
  8
0
  6
ByBlock
 62
    4
370
   -2
100
AcDbTrace
 10
45
 20
26.76340309111815
 30
0
 11
42.5
 21
26.34711843334531
 31
0
 12
42.5
 22
27.17968774889099
 32
0
 13
42.5
 23
27.17968774889099
 33
0
  0
MTEXT
  5
D4
100
AcDbEntity
  8
0
  6
CONTINUOUS
 62
    4
370
   -2
100
AcDbMText
 10
22.5
 20
28.63840309111815
 30
0
 40
2.5
 41
3.333333333333488
 71
    5
 72
    1
  1
45
  7
standard
210
0
220
0
230
1
 50
0
 73
    2
 44
1
  0
LINE
  5
D5
100
AcDbEntity
  8
0
  6
ByBlock
 62
    4
370
   -2
100
AcDbLine
 10
-1.148106374200643e-16
 20
29.375
 11
-2.296212748401287e-16
 21
25.51340309111815
  0
LINE
  5
D6
100
AcDbEntity
  8
0
  6
ByBlock
 62
    4
370
   -2
100
AcDbLine
 10
45
 20
29.375
 11
45
 21
25.51340309111815
  0
ENDBLK
  5
6F
330
6D
100
AcDbEntity
  8
0
100
AcDbBlockEnd
  0
BLOCK
  5
71
330
70
100
AcDbEntity
  8
0
100
AcDbBlockBegin
  2
*D24
 70
    1
 10
0
 20
0
  3
*D24
  1

  0
LINE
  5
D7
100
AcDbEntity
  8
0
  6
ByBlock
 62
    4
370
   -2
100
AcDbLine
 10
0
 20
-38.72932254318449
 11
180
 21
-38.72932254318449
  0
SOLID
  5
D8
100
AcDbEntity
  8
0
  6
ByBlock
 62
    4
370
   -2
100
AcDbTrace
 10
0
 20
-38.72932254318449
 30
0
 11
2.5
 21
-38.31303788541165
 31
0
 12
2.5
 22
-39.14560720095733
 32
0
 13
2.5
 23
-39.14560720095733
 33
0
  0
SOLID
  5
D9
100
AcDbEntity
  8
0
  6
ByBlock
 62
    4
370
   -2
100
AcDbTrace
 10
180
 20
-38.72932254318449
 30
0
 11
177.5
 21
-39.14560720095733
 31
0
 12
177.5
 22
-38.31303788541165
 32
0
 13
177.5
 23
-38.31303788541165
 33
0
  0
MTEXT
  5
DA
100
AcDbEntity
  8
0
  6
CONTINUOUS
 62
    4
370
   -2
100
AcDbMText
 10
90
 20
-36.85432254318449
 30
0
 40
2.5
 41
4.444444444444445
 71
    5
 72
    1
  1
180
  7
standard
210
0
220
0
230
1
 50
0
 73
    2
 44
1
  0
LINE
  5
DB
100
AcDbEntity
  8
0
  6
ByBlock
 62
    4
370
   -2
100
AcDbLine
 10
-1.148106374200643e-16
 20
-0.625
 11
-2.296212748401287e-16
 21
-39.97932254318449
  0
LINE
  5
DC
100
AcDbEntity
  8
0
  6
ByBlock
 62
    4
370
   -2
100
AcDbLine
 10
180
 20
-0.625
 11
180
 21
-39.97932254318449
  0
ENDBLK
  5
72
330
70
100
AcDbEntity
  8
0
100
AcDbBlockEnd
  0
BLOCK
  5
74
330
73
100
AcDbEntity
  8
0
100
AcDbBlockBegin
  2
*D15
 70
    1
 10
0
 20
0
  3
*D15
  1

  0
LINE
  5
DD
100
AcDbEntity
  8
1 - Spacer
  6
ByBlock
 62
    4
370
   -2
100
AcDbLine
 10
120.6159945898138
 20
25.74554488098249
 11
149.3840054101862
 21
34.25445511901751
  0
SOLID
  5
DE
100
AcDbEntity
  8
1 - Spacer
  6
ByBlock
 62
    4
370
   -2
100
AcDbTrace
 10
120.6159945898138
 20
25.74554488098249
 30
0
 11
122.8952578652962
 21
26.85381011879088
 31
0
 12
123.1313997843935
 22
26.05543134951327
 32
0
 13
123.1313997843935
 23
26.05543134951327
 33
0
  0
SOLID
  5
DF
100
AcDbEntity
  8
1 - Spacer
  6
ByBlock
 62
    4
370
   -2
100
AcDbTrace
 10
149.3840054101862
 20
34.25445511901751
 30
0
 11
147.1047421347039
 21
33.14618988120912
 31
0
 12
146.8686002156065
 22
33.94456865048672
 32
0
 13
146.8686002156065
 23
33.94456865048672
 33
0
  0
MTEXT
  5
E0
100
AcDbEntity
  8
1 - Spacer
  6
CONTINUOUS
 62
    4
370
   -2
100
AcDbMText
 10
134.4681931101228
 20
31.79800067627328
 30
0
 40
2.5
 41
3.055555555555711
 71
    5
 72
    1
  1
30
  7
standard
210
0
220
0
230
1
 50
16.47699488228533
 73
    2
 44
1
  0
ENDBLK
  5
75
330
73
100
AcDbEntity
  8
0
100
AcDbBlockEnd
  0
BLOCK
  5
77
330
76
100
AcDbEntity
  8
0
100
AcDbBlockBegin
  2
*D21
 70
    1
 10
0
 20
0
  3
*D21
  1

  0
LINE
  5
E1
100
AcDbEntity
  8
2 - panels
  6
ByBlock
 62
    4
370
   -2
100
AcDbLine
 10
2
 20
-12.09080047789725
 11
178
 21
-12.09080047789725
  0
SOLID
  5
E2
100
AcDbEntity
  8
2 - panels
  6
ByBlock
 62
    4
370
   -2
100
AcDbTrace
 10
2
 20
-12.09080047789725
 30
0
 11
4.5
 21
-11.67451582012441
 31
0
 12
4.5
 22
-12.50708513567009
 32
0
 13
4.5
 23
-12.50708513567009
 33
0
  0
SOLID
  5
E3
100
AcDbEntity
  8
2 - panels
  6
ByBlock
 62
    4
370
   -2
100
AcDbTrace
 10
178
 20
-12.09080047789725
 30
0
 11
175.5
 21
-12.50708513567009
 31
0
 12
175.5
 22
-11.67451582012441
 32
0
 13
175.5
 23
-11.67451582012441
 33
0
  0
MTEXT
  5
E4
100
AcDbEntity
  8
2 - panels
  6
CONTINUOUS
 62
    4
370
   -2
100
AcDbMText
 10
90
 20
-10.21580047789725
 30
0
 40
2.5
 41
4.444444444444599
 71
    5
 72
    1
  1
176
  7
standard
210
0
220
0
230
1
 50
0
 73
    2
 44
1
  0
LINE
  5
E5
100
AcDbEntity
  8
2 - panels
  6
ByBlock
 62
    4
370
   -2
100
AcDbLine
 10
2
 20
1.375
 11
2
 21
-13.34080047789725
  0
LINE
  5
E6
100
AcDbEntity
  8
2 - panels
  6
ByBlock
 62
    4
370
   -2
100
AcDbLine
 10
178
 20
1.375
 11
178
 21
-13.34080047789725
  0
ENDBLK
  5
78
330
76
100
AcDbEntity
  8
0
100
AcDbBlockEnd
  0
BLOCK
  5
7A
330
79
100
AcDbEntity
  8
0
100
AcDbBlockBegin
  2
*D7
 70
    1
 10
0
 20
0
  3
*D7
  1

  0
LINE
  5
E7
100
AcDbEntity
  8
0
  6
ByBlock
 62
    4
370
   -2
100
AcDbLine
 10
25.61966791628404
 20
0
 11
25.61966791628404
 21
15
  0
SOLID
  5
E8
100
AcDbEntity
  8
0
  6
ByBlock
 62
    4
370
   -2
100
AcDbTrace
 10
25.61966791628404
 20
0
 30
0
 11
25.2033832585112
 21
2.5
 31
0
 12
26.03595257405688
 22
2.5
 32
0
 13
26.03595257405688
 23
2.5
 33
0
  0
SOLID
  5
E9
100
AcDbEntity
  8
0
  6
ByBlock
 62
    4
370
   -2
100
AcDbTrace
 10
25.61966791628404
 20
15
 30
0
 11
26.03595257405688
 21
12.5
 31
0
 12
25.2033832585112
 22
12.5
 32
0
 13
25.2033832585112
 23
12.5
 33
0
  0
MTEXT
  5
EA
100
AcDbEntity
  8
0
  6
CONTINUOUS
 62
    4
370
   -2
100
AcDbMText
 10
23.74466791628404
 20
7.5
 30
0
 40
2.5
 41
2.500000000000155
 71
    5
 72
    1
  1
15
  7
standard
210
0
220
0
230
1
 50
90
 73
    2
 44
1
  0
LINE
  5
EB
100
AcDbEntity
  8
0
  6
ByBlock
 62
    4
370
   -2
100
AcDbLine
 10
15.625
 20
0
 11
26.86966791628404
 21
0
  0
LINE
  5
EC
100
AcDbEntity
  8
0
  6
ByBlock
 62
    4
370
   -2
100
AcDbLine
 10
15.625
 20
15
 11
26.86966791628404
 21
15
  0
ENDBLK
  5
7B
330
79
100
AcDbEntity
  8
0
100
AcDbBlockEnd
  0
BLOCK
  5
7D
330
7C
100
AcDbEntity
  8
0
100
AcDbBlockBegin
  2
*D8
 70
    1
 10
0
 20
0
  3
*D8
  1

  0
LINE
  5
ED
100
AcDbEntity
  8
0
  6
ByBlock
 62
    4
370
   -2
100
AcDbLine
 10
0
 20
8.172043010752692
 11
15
 21
8.172043010752692
  0
SOLID
  5
EE
100
AcDbEntity
  8
0
  6
ByBlock
 62
    4
370
   -2
100
AcDbTrace
 10
0
 20
8.172043010752692
 30
0
 11
2.5
 21
8.588327668525531
 31
0
 12
2.5
 22
7.755758352979851
 32
0
 13
2.5
 23
7.755758352979851
 33
0
  0
SOLID
  5
EF
100
AcDbEntity
  8
0
  6
ByBlock
 62
    4
370
   -2
100
AcDbTrace
 10
15
 20
8.172043010752692
 30
0
 11
12.5
 21
7.755758352979851
 31
0
 12
12.5
 22
8.588327668525531
 32
0
 13
12.5
 23
8.588327668525531
 33
0
  0
MTEXT
  5
F0
100
AcDbEntity
  8
0
  6
CONTINUOUS
 62
    4
370
   -2
100
AcDbMText
 10
7.5
 20
10.04704301075269
 30
0
 40
2.5
 41
2.500000000000155
 71
    5
 72
    1
  1
15
  7
standard
210
0
220
0
230
1
 50
0
 73
    2
 44
1
  0
LINE
  5
F1
100
AcDbEntity
  8
0
  6
ByBlock
 62
    4
370
   -2
100
AcDbLine
 10
-1.148106374200643e-16
 20
14.375
 11
-2.296212748401287e-16
 21
6.922043010752692
  0
LINE
  5
F2
100
AcDbEntity
  8
0
  6
ByBlock
 62
    4
370
   -2
100
AcDbLine
 10
15
 20
14.375
 11
15
 21
6.922043010752692
  0
ENDBLK
  5
7E
330
7C
100
AcDbEntity
  8
0
100
AcDbBlockEnd
  0
BLOCK
  5
80
330
7F
100
AcDbEntity
  8
0
100
AcDbBlockBegin
  2
*D13
 70
    1
 10
0
 20
0
  3
*D13
  1

  0
LINE
  5
F3
100
AcDbEntity
  8
0
  6
ByBlock
 62
    4
370
   -2
100
AcDbLine
 10
58.10174688157274
 20
0
 11
58.10174688157274
 21
30
  0
SOLID
  5
F4
100
AcDbEntity
  8
0
  6
ByBlock
 62
    4
370
   -2
100
AcDbTrace
 10
58.10174688157274
 20
0
 30
0
 11
57.6854622237999
 21
2.5
 31
0
 12
58.51803153934558
 22
2.5
 32
0
 13
58.51803153934558
 23
2.5
 33
0
  0
SOLID
  5
F5
100
AcDbEntity
  8
0
  6
ByBlock
 62
    4
370
   -2
100
AcDbTrace
 10
58.10174688157274
 20
30
 30
0
 11
58.51803153934558
 21
27.5
 31
0
 12
57.6854622237999
 22
27.5
 32
0
 13
57.6854622237999
 23
27.5
 33
0
  0
MTEXT
  5
F6
100
AcDbEntity
  8
0
  6
CONTINUOUS
 62
    4
370
   -2
100
AcDbMText
 10
56.22674688157274
 20
15
 30
0
 40
2.5
 41
3.055555555555711
 71
    5
 72
    1
  1
30
  7
standard
210
0
220
0
230
1
 50
90
 73
    2
 44
1
  0
LINE
  5
F7
100
AcDbEntity
  8
0
  6
ByBlock
 62
    4
370
   -2
100
AcDbLine
 10
45.625
 20
0
 11
59.35174688157274
 21
0
  0
LINE
  5
F8
100
AcDbEntity
  8
0
  6
ByBlock
 62
    4
370
   -2
100
AcDbLine
 10
45.625
 20
30
 11
59.35174688157274
 21
30
  0
ENDBLK
  5
81
330
7F
100
AcDbEntity
  8
0
100
AcDbBlockEnd
  0
BLOCK
  5
83
330
82
100
AcDbEntity
  8
0
100
AcDbBlockBegin
  2
*D11
 70
    1
 10
0
 20
0
  3
*D11
  1

  0
LINE
  5
F9
100
AcDbEntity
  8
0
  6
ByBlock
 62
    4
370
   -2
100
AcDbLine
 10
15
 20
126.2683633016856
 11
45
 21
126.2683633016856
  0
SOLID
  5
FA
100
AcDbEntity
  8
0
  6
ByBlock
 62
    4
370
   -2
100
AcDbTrace
 10
15
 20
126.2683633016856
 30
0
 11
17.5
 21
126.6846479594584
 31
0
 12
17.5
 22
125.8520786439128
 32
0
 13
17.5
 23
125.8520786439128
 33
0
  0
SOLID
  5
FB
100
AcDbEntity
  8
0
  6
ByBlock
 62
    4
370
   -2
100
AcDbTrace
 10
45
 20
126.2683633016856
 30
0
 11
42.5
 21
125.8520786439128
 31
0
 12
42.5
 22
126.6846479594584
 32
0
 13
42.5
 23
126.6846479594584
 33
0
  0
MTEXT
  5
FC
100
AcDbEntity
  8
0
  6
CONTINUOUS
 62
    4
370
   -2
100
AcDbMText
 10
30
 20
128.1433633016856
 30
0
 40
2.5
 41
3.055555555555711
 71
    5
 72
    1
  1
30
  7
standard
210
0
220
0
230
1
 50
0
 73
    2
 44
1
  0
LINE
  5
FD
100
AcDbEntity
  8
0
  6
ByBlock
 62
    4
370
   -2
100
AcDbLine
 10
15
 20
134.375
 11
15
 21
125.0183633016856
  0
LINE
  5
FE
100
AcDbEntity
  8
0
  6
ByBlock
 62
    4
370
   -2
100
AcDbLine
 10
45
 20
134.375
 11
45
 21
125.0183633016856
  0
ENDBLK
  5
84
330
82
100
AcDbEntity
  8
0
100
AcDbBlockEnd
  0
BLOCK
  5
86
330
85
100
AcDbEntity
  8
0
100
AcDbBlockBegin
  2
*D4
 70
    1
 10
0
 20
0
  3
*D4
  1

  0
LINE
  5
FF
100
AcDbEntity
  8
0
  6
ByBlock
 62
    4
370
   -2
100
AcDbLine
 10
15
 20
126.2683633016856
 11
45
 21
126.2683633016856
  0
SOLID
  5
100
100
AcDbEntity
  8
0
  6
ByBlock
 62
    4
370
   -2
100
AcDbTrace
 10
15
 20
126.2683633016856
 30
0
 11
17.5
 21
126.6846479594584
 31
0
 12
17.5
 22
125.8520786439128
 32
0
 13
17.5
 23
125.8520786439128
 33
0
  0
SOLID
  5
101
100
AcDbEntity
  8
0
  6
ByBlock
 62
    4
370
   -2
100
AcDbTrace
 10
45
 20
126.2683633016856
 30
0
 11
42.5
 21
125.8520786439128
 31
0
 12
42.5
 22
126.6846479594584
 32
0
 13
42.5
 23
126.6846479594584
 33
0
  0
MTEXT
  5
102
100
AcDbEntity
  8
0
  6
CONTINUOUS
 62
    4
370
   -2
100
AcDbMText
 10
30
 20
128.1433633016856
 30
0
 40
2.5
 41
3.055555555555711
 71
    5
 72
    1
  1
30
  7
standard
210
0
220
0
230
1
 50
0
 73
    2
 44
1
  0
LINE
  5
103
100
AcDbEntity
  8
0
  6
ByBlock
 62
    4
370
   -2
100
AcDbLine
 10
15
 20
134.375
 11
15
 21
125.0183633016856
  0
LINE
  5
104
100
AcDbEntity
  8
0
  6
ByBlock
 62
    4
370
   -2
100
AcDbLine
 10
45
 20
134.375
 11
45
 21
125.0183633016856
  0
ENDBLK
  5
87
330
85
100
AcDbEntity
  8
0
100
AcDbBlockEnd
  0
BLOCK
  5
89
330
88
100
AcDbEntity
  8
0
100
AcDbBlockBegin
  2
*D19
 70
    1
 10
0
 20
0
  3
*D19
  1

  0
LINE
  5
105
100
AcDbEntity
  8
2 - panels
  6
ByBlock
 62
    4
370
   -2
100
AcDbLine
 10
161.500077430678
 20
15.02328108139238
 11
168.499922569322
 21
14.97671891860762
  0
SOLID
  5
106
100
AcDbEntity
  8
2 - panels
  6
ByBlock
 62
    4
370
   -2
100
AcDbTrace
 10
161.500077430678
 20
15.02328108139238
 30
0
 11
164.0027911393366
 21
15.42292718582686
 31
0
 12
163.9972531067651
 22
14.5903762892545
 32
0
 13
163.9972531067651
 23
14.5903762892545
 33
0
  0
SOLID
  5
107
100
AcDbEntity
  8
2 - panels
  6
ByBlock
 62
    4
370
   -2
100
AcDbTrace
 10
168.499922569322
 20
14.97671891860762
 30
0
 11
165.9972088606634
 21
14.57707281417314
 31
0
 12
166.0027468932349
 22
15.4096237107455
 32
0
 13
166.0027468932349
 23
15.4096237107455
 33
0
  0
MTEXT
  5
108
100
AcDbEntity
  8
2 - panels
  6
CONTINUOUS
 62
    4
370
   -2
100
AcDbMText
 10
165.0124720078888
 20
16.87495851927962
 30
0
 40
2.5
 41
1.111111111111111
 71
    5
 72
    1
  1
7
  7
standard
210
0
220
0
230
1
 50
359.6188807019789
 73
    2
 44
1
  0
ENDBLK
  5
8A
330
88
100
AcDbEntity
  8
0
100
AcDbBlockEnd
  0
BLOCK
  5
8C
330
8B
100
AcDbEntity
  8
0
100
AcDbBlockBegin
  2
*D12
 70
    1
 10
0
 20
0
  3
*D12
  1

  0
LINE
  5
109
100
AcDbEntity
  8
0
  6
ByBlock
 62
    4
370
   -2
100
AcDbLine
 10
0
 20
26.76340309111815
 11
45
 21
26.76340309111815
  0
SOLID
  5
10A
100
AcDbEntity
  8
0
  6
ByBlock
 62
    4
370
   -2
100
AcDbTrace
 10
0
 20
26.76340309111815
 30
0
 11
2.5
 21
27.17968774889099
 31
0
 12
2.5
 22
26.34711843334531
 32
0
 13
2.5
 23
26.34711843334531
 33
0
  0
SOLID
  5
10B
100
AcDbEntity
  8
0
  6
ByBlock
 62
    4
370
   -2
100
AcDbTrace
 10
45
 20
26.76340309111815
 30
0
 11
42.5
 21
26.34711843334531
 31
0
 12
42.5
 22
27.17968774889099
 32
0
 13
42.5
 23
27.17968774889099
 33
0
  0
MTEXT
  5
10C
100
AcDbEntity
  8
0
  6
CONTINUOUS
 62
    4
370
   -2
100
AcDbMText
 10
22.5
 20
28.63840309111815
 30
0
 40
2.5
 41
3.333333333333488
 71
    5
 72
    1
  1
45
  7
standard
210
0
220
0
230
1
 50
0
 73
    2
 44
1
  0
LINE
  5
10D
100
AcDbEntity
  8
0
  6
ByBlock
 62
    4
370
   -2
100
AcDbLine
 10
-1.148106374200643e-16
 20
29.375
 11
-2.296212748401287e-16
 21
25.51340309111815
  0
LINE
  5
10E
100
AcDbEntity
  8
0
  6
ByBlock
 62
    4
370
   -2
100
AcDbLine
 10
45
 20
29.375
 11
45
 21
25.51340309111815
  0
ENDBLK
  5
8D
330
8B
100
AcDbEntity
  8
0
100
AcDbBlockEnd
  0
BLOCK
  5
8F
330
8E
100
AcDbEntity
  8
0
100
AcDbBlockBegin
  2
*D17
 70
    1
 10
0
 20
0
  3
*D17
  1

  0
LINE
  5
10F
100
AcDbEntity
  8
0
  6
ByBlock
 62
    4
370
   -2
100
AcDbLine
 10
41.50042359271023
 20
104.9455484661293
 11
48.49957640728977
 21
105.0544515338707
  0
SOLID
  5
110
100
AcDbEntity
  8
0
  6
ByBlock
 62
    4
370
   -2
100
AcDbTrace
 10
41.50042359271023
 20
104.9455484661293
 30
0
 11
43.99364464416218
 21
105.4006766951965
 31
0
 12
44.00659740881508
 22
104.5682081425916
 32
0
 13
44.00659740881508
 23
104.5682081425916
 33
0
  0
SOLID
  5
111
100
AcDbEntity
  8
0
  6
ByBlock
 62
    4
370
   -2
100
AcDbTrace
 10
48.49957640728977
 20
105.0544515338707
 30
0
 11
46.00635535583782
 21
104.5993233048035
 31
0
 12
45.99340259118492
 22
105.4317918574084
 32
0
 13
45.99340259118492
 23
105.4317918574084
 33
0
  0
MTEXT
  5
112
100
AcDbEntity
  8
0
  6
CONTINUOUS
 62
    4
370
   -2
100
AcDbMText
 10
44.97082953542642
 20
106.8747730753338
 30
0
 40
2.5
 41
1.111111111111111
 71
    5
 72
    1
  1
7
  7
standard
210
0
220
0
230
1
 50
0.8914196988902852
 73
    2
 44
1
  0
ENDBLK
  5
90
330
8E
100
AcDbEntity
  8
0
100
AcDbBlockEnd
  0
BLOCK
  5
92
330
91
100
AcDbEntity
  8
0
100
AcDbBlockBegin
  2
*D18
 70
    1
 10
0
 20
0
  3
*D18
  1

  0
LINE
  5
113
100
AcDbEntity
  8
1 - Spacer
  6
ByBlock
 62
    4
370
   -2
100
AcDbLine
 10
7.513359067233792
 20
104.5525544236116
 11
22.48664093276621
 21
105.4474455763884
  0
SOLID
  5
114
100
AcDbEntity
  8
1 - Spacer
  6
ByBlock
 62
    4
370
   -2
100
AcDbTrace
 10
7.513359067233792
 20
104.5525544236116
 30
0
 11
9.984070747670685
 21
105.117246116883
 31
0
 12
10.03374134197437
 22
104.2861597812658
 32
0
 13
10.03374134197437
 23
104.2861597812658
 33
0
  0
SOLID
  5
115
100
AcDbEntity
  8
1 - Spacer
  6
ByBlock
 62
    4
370
   -2
100
AcDbTrace
 10
22.48664093276621
 20
105.4474455763884
 30
0
 11
20.01592925232932
 21
104.882753883117
 31
0
 12
19.96625865802563
 22
105.7138402187342
 32
0
 13
19.96625865802563
 23
105.7138402187342
 33
0
  0
MTEXT
  5
116
100
AcDbEntity
  8
1 - Spacer
  6
CONTINUOUS
 62
    4
370
   -2
100
AcDbMText
 10
14.88813860590291
 20
106.8716602331915
 30
0
 40
2.5
 41
2.500000000000155
 71
    5
 72
    1
  1
15
  7
standard
210
0
220
0
230
1
 50
3.420263387696092
 73
    2
 44
1
  0
ENDBLK
  5
93
330
91
100
AcDbEntity
  8
0
100
AcDbBlockEnd
  0
BLOCK
  5
95
330
94
100
AcDbEntity
  8
0
100
AcDbBlockBegin
  2
*D23
 70
    1
 10
0
 20
0
  3
*D23
  1

  0
LINE
  5
117
100
AcDbEntity
  8
2 - panels
  6
ByBlock
 62
    4
370
   -2
100
AcDbLine
 10
197.1326164874552
 20
62
 11
197.1326164874552
 21
178
  0
SOLID
  5
118
100
AcDbEntity
  8
2 - panels
  6
ByBlock
 62
    4
370
   -2
100
AcDbTrace
 10
197.1326164874552
 20
62
 30
0
 11
196.7163318296824
 21
64.5
 31
0
 12
197.5489011452281
 22
64.5
 32
0
 13
197.5489011452281
 23
64.5
 33
0
  0
SOLID
  5
119
100
AcDbEntity
  8
2 - panels
  6
ByBlock
 62
    4
370
   -2
100
AcDbTrace
 10
197.1326164874552
 20
178
 30
0
 11
197.5489011452281
 21
175.5
 31
0
 12
196.7163318296824
 22
175.5
 32
0
 13
196.7163318296824
 23
175.5
 33
0
  0
MTEXT
  5
11A
100
AcDbEntity
  8
2 - panels
  6
CONTINUOUS
 62
    4
370
   -2
100
AcDbMText
 10
195.2576164874552
 20
120
 30
0
 40
2.5
 41
3.888888888889044
 71
    5
 72
    1
  1
116
  7
standard
210
0
220
0
230
1
 50
90
 73
    2
 44
1
  0
LINE
  5
11B
100
AcDbEntity
  8
2 - panels
  6
ByBlock
 62
    4
370
   -2
100
AcDbLine
 10
178.625
 20
62
 11
198.3826164874552
 21
62
  0
LINE
  5
11C
100
AcDbEntity
  8
2 - panels
  6
ByBlock
 62
    4
370
   -2
100
AcDbLine
 10
178.625
 20
178
 11
198.3826164874552
 21
178
  0
ENDBLK
  5
96
330
94
100
AcDbEntity
  8
0
100
AcDbBlockEnd
  0
ENDSEC
  0
SECTION
  2
ENTITIES
  0
LWPOLYLINE
  5
11D
100
AcDbEntity
  8
0
  6
ByLayer
 62
  256
370
   -1
100
AcDbPolyline
 90
    4
 70
    1
 43
0
 10
0
 20
0
 10
180
 20
0
 10
180
 20
180
 10
0
 20
180
  0
CIRCLE
  5
11E
100
AcDbEntity
  8
0
  6
ByLayer
 62
  256
370
   -1
100
AcDbCircle
 10
45
 20
30
 40
10
  0
CIRCLE
  5
11F
100
AcDbEntity
  8
0
  6
ByLayer
 62
  256
370
   -1
100
AcDbCircle
 10
135
 20
30
 40
10
  0
DIMENSION
  5
120
100
AcDbEntity
  8
0
  6
ByLayer
 62
  256
370
   -1
100
AcDbDimension
  2
*D1
 10
15
 20
8.172043010752692
 30
0
 11
7.5
 21
10.04704301075269
 31
0
 70
   32
 71
    5
  3
Standard
 53
0
210
0
220
0
230
1
100
AcDbAlignedDimension
 13
0
 23
15
 33
0
 14
15
 24
15
 34
0
100
AcDbRotatedDimension
  0
DIMENSION
  5
121
100
AcDbEntity
  8
0
  6
ByLayer
 62
  256
370
   -1
100
AcDbDimension
  2
*D2
 10
-9.378628433639694
 20
180
 30
0
 11
-11.2536284336397
 21
90
 31
0
 70
   32
 71
    5
  3
Standard
 53
0
210
0
220
0
230
1
100
AcDbAlignedDimension
 13
0
 23
0
 33
0
 14
0
 24
180
 34
0
 50
90
100
AcDbRotatedDimension
  0
DIMENSION
  5
122
100
AcDbEntity
  8
0
  6
ByLayer
 62
  256
370
   -1
100
AcDbDimension
  2
*D3
 10
4.574940699336436
 20
165
 30
0
 11
2.699940699336435
 21
150
 31
0
 70
   32
 71
    5
  3
Standard
 53
0
210
0
220
0
230
1
100
AcDbAlignedDimension
 13
15
 23
135
 33
0
 14
15
 24
165
 34
0
 50
90
100
AcDbRotatedDimension
  0
DIMENSION
  5
123
100
AcDbEntity
  8
0
  6
ByLayer
 62
  256
370
   -1
100
AcDbDimension
  2
*D4
 10
45
 20
126.2683633016856
 30
0
 11
30
 21
128.1433633016856
 31
0
 70
   32
 71
    5
  3
Standard
 53
0
210
0
220
0
230
1
100
AcDbAlignedDimension
 13
15
 23
135
 33
0
 14
45
 24
135
 34
0
100
AcDbRotatedDimension
  0
DIMENSION
  5
124
100
AcDbEntity
  8
0
  6
ByLayer
 62
  256
370
   -1
100
AcDbDimension
  2
*D5
 10
45
 20
26.76340309111815
 30
0
 11
22.5
 21
28.63840309111815
 31
0
 70
   32
 71
    5
  3
Standard
 53
0
210
0
220
0
230
1
100
AcDbAlignedDimension
 13
0
 23
30
 33
0
 14
45
 24
30
 34
0
100
AcDbRotatedDimension
  0
DIMENSION
  5
125
100
AcDbEntity
  8
0
  6
ByLayer
 62
  256
370
   -1
100
AcDbDimension
  2
*D6
 10
58.10174688157274
 20
30
 30
0
 11
56.22674688157274
 21
15
 31
0
 70
   32
 71
    5
  3
Standard
 53
0
210
0
220
0
230
1
100
AcDbAlignedDimension
 13
45
 23
0
 33
0
 14
45
 24
30
 34
0
 50
90
100
AcDbRotatedDimension
  0
DIMENSION
  5
126
100
AcDbEntity
  8
0
  6
ByLayer
 62
  256
370
   -1
100
AcDbDimension
  2
*D7
 10
25.61966791628404
 20
15
 30
0
 11
23.74466791628404
 21
7.5
 31
0
 70
   32
 71
    5
  3
Standard
 53
0
210
0
220
0
230
1
100
AcDbAlignedDimension
 13
15
 23
0
 33
0
 14
15
 24
15
 34
0
 50
90
100
AcDbRotatedDimension
  0
LWPOLYLINE
  5
127
100
AcDbEntity
  8
0
  6
ByLayer
 62
  256
370
   -1
100
AcDbPolyline
 90
    4
 70
    1
 43
0
 10
0
 20
0
 10
180
 20
0
 10
180
 20
180
 10
0
 20
180
  0
CIRCLE
  5
128
100
AcDbEntity
  8
0
  6
ByLayer
 62
  256
370
   -1
100
AcDbCircle
 10
45
 20
30
 40
10
  0
CIRCLE
  5
129
100
AcDbEntity
  8
0
  6
ByLayer
 62
  256
370
   -1
100
AcDbCircle
 10
135
 20
30
 40
10
  0
DIMENSION
  5
12A
100
AcDbEntity
  8
0
  6
ByLayer
 62
  256
370
   -1
100
AcDbDimension
  2
*D8
 10
15
 20
8.172043010752692
 30
0
 11
7.5
 21
10.04704301075269
 31
0
 70
   32
 71
    5
  3
Standard
 53
0
210
0
220
0
230
1
100
AcDbAlignedDimension
 13
0
 23
15
 33
0
 14
15
 24
15
 34
0
100
AcDbRotatedDimension
  0
DIMENSION
  5
12B
100
AcDbEntity
  8
0
  6
ByLayer
 62
  256
370
   -1
100
AcDbDimension
  2
*D9
 10
-9.378628433639694
 20
180
 30
0
 11
-11.2536284336397
 21
90
 31
0
 70
   32
 71
    5
  3
Standard
 53
0
210
0
220
0
230
1
100
AcDbAlignedDimension
 13
0
 23
0
 33
0
 14
0
 24
180
 34
0
 50
90
100
AcDbRotatedDimension
  0
DIMENSION
  5
12C
100
AcDbEntity
  8
0
  6
ByLayer
 62
  256
370
   -1
100
AcDbDimension
  2
*D10
 10
4.574940699336436
 20
165
 30
0
 11
2.699940699336435
 21
150
 31
0
 70
   32
 71
    5
  3
Standard
 53
0
210
0
220
0
230
1
100
AcDbAlignedDimension
 13
15
 23
135
 33
0
 14
15
 24
165
 34
0
 50
90
100
AcDbRotatedDimension
  0
DIMENSION
  5
12D
100
AcDbEntity
  8
0
  6
ByLayer
 62
  256
370
   -1
100
AcDbDimension
  2
*D11
 10
45
 20
126.2683633016856
 30
0
 11
30
 21
128.1433633016856
 31
0
 70
   32
 71
    5
  3
Standard
 53
0
210
0
220
0
230
1
100
AcDbAlignedDimension
 13
15
 23
135
 33
0
 14
45
 24
135
 34
0
100
AcDbRotatedDimension
  0
DIMENSION
  5
12E
100
AcDbEntity
  8
0
  6
ByLayer
 62
  256
370
   -1
100
AcDbDimension
  2
*D12
 10
45
 20
26.76340309111815
 30
0
 11
22.5
 21
28.63840309111815
 31
0
 70
   32
 71
    5
  3
Standard
 53
0
210
0
220
0
230
1
100
AcDbAlignedDimension
 13
0
 23
30
 33
0
 14
45
 24
30
 34
0
100
AcDbRotatedDimension
  0
DIMENSION
  5
12F
100
AcDbEntity
  8
0
  6
ByLayer
 62
  256
370
   -1
100
AcDbDimension
  2
*D13
 10
58.10174688157274
 20
30
 30
0
 11
56.22674688157274
 21
15
 31
0
 70
   32
 71
    5
  3
Standard
 53
0
210
0
220
0
230
1
100
AcDbAlignedDimension
 13
45
 23
0
 33
0
 14
45
 24
30
 34
0
 50
90
100
AcDbRotatedDimension
  0
DIMENSION
  5
130
100
AcDbEntity
  8
0
  6
ByLayer
 62
  256
370
   -1
100
AcDbDimension
  2
*D14
 10
25.61966791628404
 20
15
 30
0
 11
23.74466791628404
 21
7.5
 31
0
 70
   32
 71
    5
  3
Standard
 53
0
210
0
220
0
230
1
100
AcDbAlignedDimension
 13
15
 23
0
 33
0
 14
15
 24
15
 34
0
 50
90
100
AcDbRotatedDimension
  0
LWPOLYLINE
  5
131
100
AcDbEntity
  8
1 - Spacer
  6
ByLayer
 62
  256
370
   -1
100
AcDbPolyline
 90
    4
 70
    1
 43
0
 10
0
 20
0
 10
180
 20
0
 10
180
 20
180
 10
0
 20
180
  0
LWPOLYLINE
  5
132
100
AcDbEntity
  8
1 - Spacer
  6
ByLayer
 62
  256
370
   -1
100
AcDbPolyline
 90
    4
 70
    1
 43
0
 10
0
 20
0
 10
180
 20
0
 10
180
 20
180
 10
0
 20
180
  0
CIRCLE
  5
133
100
AcDbEntity
  8
1 - Spacer
  6
ByLayer
 62
  256
370
   -1
100
AcDbCircle
 10
135
 20
165
 40
0
  0
CIRCLE
  5
134
100
AcDbEntity
  8
1 - Spacer
  6
ByLayer
 62
  256
370
   -1
100
AcDbCircle
 10
45
 20
30
 40
15
  0
CIRCLE
  5
135
100
AcDbEntity
  8
1 - Spacer
  6
ByLayer
 62
  256
370
   -1
100
AcDbCircle
 10
135
 20
30
 40
15
  0
DIMENSION
  5
136
100
AcDbEntity
  8
1 - Spacer
  6
ByLayer
 62
  256
370
   -1
100
AcDbDimension
  2
*D15
 10
120.6159945898138
 20
25.74554488098249
 30
0
 11
134.4681931101228
 21
31.79800067627328
 31
0
 70
   35
 71
    5
 72
    0
  3
Standard
 53
0
210
0
220
0
230
1
100
AcDbDiametricDimension
 15
149.3840054101862
 25
34.25445511901751
 35
0
 40
0
  0
LWPOLYLINE
  5
137
100
AcDbEntity
  8
2 - panels
  6
ByLayer
 62
  256
370
   -1
100
AcDbPolyline
 90
    4
 70
    1
 43
0
 10
2
 20
2
 10
178
 20
2
 10
178
 20
58
 10
2
 20
58
  0
LWPOLYLINE
  5
138
100
AcDbEntity
  8
2 - panels
  6
ByLayer
 62
  256
370
   -1
100
AcDbPolyline
 90
    4
 70
    1
 43
0
 10
2
 20
62
 10
58
 20
62
 10
58
 20
178
 10
2
 20
178
  0
LWPOLYLINE
  5
139
100
AcDbEntity
  8
2 - panels
  6
ByLayer
 62
  256
370
   -1
100
AcDbPolyline
 90
    4
 70
    1
 43
0
 10
62
 20
62
 10
118
 20
62
 10
118
 20
178
 10
62
 20
178
  0
LWPOLYLINE
  5
13A
100
AcDbEntity
  8
2 - panels
  6
ByLayer
 62
  256
370
   -1
100
AcDbPolyline
 90
    4
 70
    1
 43
0
 10
122
 20
62
 10
178
 20
62
 10
178
 20
178
 10
122
 20
178
  0
CIRCLE
  5
13B
100
AcDbEntity
  8
2 - panels
  6
ByLayer
 62
  256
370
   -1
100
AcDbCircle
 10
45
 20
30
 40
10
  0
CIRCLE
  5
13C
100
AcDbEntity
  8
2 - panels
  6
ByLayer
 62
  256
370
   -1
100
AcDbCircle
 10
135
 20
30
 40
10
  0
DIMENSION
  5
13D
100
AcDbEntity
  8
2 - panels
  6
ByLayer
 62
  256
370
   -1
100
AcDbDimension
  2
*D16
 10
36.33799950230102
 20
25.00302617798906
 30
0
 11
44.06306740837295
 21
31.62412509331856
 31
0
 70
   35
 71
    5
 72
    0
  3
Standard
 53
0
210
0
220
0
230
1
100
AcDbDiametricDimension
 15
53.66200049769898
 25
34.99697382201094
 35
0
 40
0
  0
CIRCLE
  5
13E
100
AcDbEntity
  8
2 - panels
  6
ByLayer
 62
  256
370
   -1
100
AcDbCircle
 10
75
 20
75
 40
3.5
  0
CIRCLE
  5
13F
100
AcDbEntity
  8
2 - panels
  6
ByLayer
 62
  256
370
   -1
100
AcDbCircle
 10
105
 20
75
 40
3.5
  0
CIRCLE
  5
140
100
AcDbEntity
  8
2 - panels
  6
ByLayer
 62
  256
370
   -1
100
AcDbCircle
 10
15
 20
75
 40
3.5
  0
CIRCLE
  5
141
100
AcDbEntity
  8
2 - panels
  6
ByLayer
 62
  256
370
   -1
100
AcDbCircle
 10
135
 20
75
 40
3.5
  0
CIRCLE
  5
142
100
AcDbEntity
  8
2 - panels
  6
ByLayer
 62
  256
370
   -1
100
AcDbCircle
 10
15
 20
165
 40
3.5
  0
CIRCLE
  5
143
100
AcDbEntity
  8
2 - panels
  6
ByLayer
 62
  256
370
   -1
100
AcDbCircle
 10
15
 20
135
 40
3.5
  0
CIRCLE
  5
144
100
AcDbEntity
  8
2 - panels
  6
ByLayer
 62
  256
370
   -1
100
AcDbCircle
 10
45
 20
135
 40
3.5
  0
CIRCLE
  5
145
100
AcDbEntity
  8
2 - panels
  6
ByLayer
 62
  256
370
   -1
100
AcDbCircle
 10
15
 20
105
 40
3.5
  0
CIRCLE
  5
146
100
AcDbEntity
  8
2 - panels
  6
ByLayer
 62
  256
370
   -1
100
AcDbCircle
 10
45
 20
105
 40
3.5
  0
CIRCLE
  5
147
100
AcDbEntity
  8
2 - panels
  6
ByLayer
 62
  256
370
   -1
100
AcDbCircle
 10
45
 20
75
 40
3.5
  0
CIRCLE
  5
148
100
AcDbEntity
  8
2 - panels
  6
ByLayer
 62
  256
370
   -1
100
AcDbCircle
 10
75
 20
165
 40
3.5
  0
CIRCLE
  5
149
100
AcDbEntity
  8
2 - panels
  6
ByLayer
 62
  256
370
   -1
100
AcDbCircle
 10
75
 20
135
 40
3.5
  0
CIRCLE
  5
14A
100
AcDbEntity
  8
2 - panels
  6
ByLayer
 62
  256
370
   -1
100
AcDbCircle
 10
105
 20
165
 40
3.5
  0
CIRCLE
  5
14B
100
AcDbEntity
  8
2 - panels
  6
ByLayer
 62
  256
370
   -1
100
AcDbCircle
 10
105
 20
135
 40
3.5
  0
CIRCLE
  5
14C
100
AcDbEntity
  8
2 - panels
  6
ByLayer
 62
  256
370
   -1
100
AcDbCircle
 10
75
 20
105
 40
3.5
  0
CIRCLE
  5
14D
100
AcDbEntity
  8
2 - panels
  6
ByLayer
 62
  256
370
   -1
100
AcDbCircle
 10
105
 20
105
 40
3.5
  0
CIRCLE
  5
14E
100
AcDbEntity
  8
2 - panels
  6
ByLayer
 62
  256
370
   -1
100
AcDbCircle
 10
135
 20
165
 40
3.5
  0
CIRCLE
  5
14F
100
AcDbEntity
  8
2 - panels
  6
ByLayer
 62
  256
370
   -1
100
AcDbCircle
 10
165
 20
165
 40
3.5
  0
CIRCLE
  5
150
100
AcDbEntity
  8
2 - panels
  6
ByLayer
 62
  256
370
   -1
100
AcDbCircle
 10
135
 20
135
 40
3.5
  0
CIRCLE
  5
151
100
AcDbEntity
  8
2 - panels
  6
ByLayer
 62
  256
370
   -1
100
AcDbCircle
 10
165
 20
135
 40
3.5
  0
CIRCLE
  5
152
100
AcDbEntity
  8
2 - panels
  6
ByLayer
 62
  256
370
   -1
100
AcDbCircle
 10
135
 20
105
 40
3.5
  0
CIRCLE
  5
153
100
AcDbEntity
  8
2 - panels
  6
ByLayer
 62
  256
370
   -1
100
AcDbCircle
 10
165
 20
75
 40
3.5
  0
CIRCLE
  5
154
100
AcDbEntity
  8
2 - panels
  6
ByLayer
 62
  256
370
   -1
100
AcDbCircle
 10
165
 20
105
 40
3.5
  0
CIRCLE
  5
155
100
AcDbEntity
  8
2 - panels
  6
ByLayer
 62
  256
370
   -1
100
AcDbCircle
 10
15
 20
15
 40
3.5
  0
CIRCLE
  5
156
100
AcDbEntity
  8
2 - panels
  6
ByLayer
 62
  256
370
   -1
100
AcDbCircle
 10
15
 20
45
 40
3.5
  0
CIRCLE
  5
157
100
AcDbEntity
  8
2 - panels
  6
ByLayer
 62
  256
370
   -1
100
AcDbCircle
 10
45
 20
165
 40
3.5
  0
CIRCLE
  5
158
100
AcDbEntity
  8
2 - panels
  6
ByLayer
 62
  256
370
   -1
100
AcDbCircle
 10
75
 20
45
 40
3.5
  0
CIRCLE
  5
159
100
AcDbEntity
  8
2 - panels
  6
ByLayer
 62
  256
370
   -1
100
AcDbCircle
 10
75
 20
15
 40
3.5
  0
CIRCLE
  5
15A
100
AcDbEntity
  8
2 - panels
  6
ByLayer
 62
  256
370
   -1
100
AcDbCircle
 10
105
 20
45
 40
3.5
  0
CIRCLE
  5
15B
100
AcDbEntity
  8
2 - panels
  6
ByLayer
 62
  256
370
   -1
100
AcDbCircle
 10
105
 20
15
 40
3.5
  0
CIRCLE
  5
15C
100
AcDbEntity
  8
2 - panels
  6
ByLayer
 62
  256
370
   -1
100
AcDbCircle
 10
165
 20
45
 40
3.5
  0
CIRCLE
  5
15D
100
AcDbEntity
  8
2 - panels
  6
ByLayer
 62
  256
370
   -1
100
AcDbCircle
 10
165
 20
15
 40
3.5
  0
CIRCLE
  5
15E
100
AcDbEntity
  8
0
  6
ByLayer
 62
  256
370
   -1
100
AcDbCircle
 10
75
 20
75
 40
3.5
  0
CIRCLE
  5
15F
100
AcDbEntity
  8
0
  6
ByLayer
 62
  256
370
   -1
100
AcDbCircle
 10
105
 20
75
 40
3.5
  0
CIRCLE
  5
160
100
AcDbEntity
  8
0
  6
ByLayer
 62
  256
370
   -1
100
AcDbCircle
 10
15
 20
75
 40
3.5
  0
CIRCLE
  5
161
100
AcDbEntity
  8
0
  6
ByLayer
 62
  256
370
   -1
100
AcDbCircle
 10
135
 20
75
 40
3.5
  0
CIRCLE
  5
162
100
AcDbEntity
  8
0
  6
ByLayer
 62
  256
370
   -1
100
AcDbCircle
 10
15
 20
165
 40
3.5
  0
CIRCLE
  5
163
100
AcDbEntity
  8
0
  6
ByLayer
 62
  256
370
   -1
100
AcDbCircle
 10
15
 20
135
 40
3.5
  0
CIRCLE
  5
164
100
AcDbEntity
  8
0
  6
ByLayer
 62
  256
370
   -1
100
AcDbCircle
 10
45
 20
135
 40
3.5
  0
CIRCLE
  5
165
100
AcDbEntity
  8
0
  6
ByLayer
 62
  256
370
   -1
100
AcDbCircle
 10
15
 20
105
 40
3.5
  0
CIRCLE
  5
166
100
AcDbEntity
  8
0
  6
ByLayer
 62
  256
370
   -1
100
AcDbCircle
 10
45
 20
105
 40
3.5
  0
CIRCLE
  5
167
100
AcDbEntity
  8
0
  6
ByLayer
 62
  256
370
   -1
100
AcDbCircle
 10
45
 20
75
 40
3.5
  0
CIRCLE
  5
168
100
AcDbEntity
  8
0
  6
ByLayer
 62
  256
370
   -1
100
AcDbCircle
 10
75
 20
165
 40
3.5
  0
CIRCLE
  5
169
100
AcDbEntity
  8
0
  6
ByLayer
 62
  256
370
   -1
100
AcDbCircle
 10
75
 20
135
 40
3.5
  0
CIRCLE
  5
16A
100
AcDbEntity
  8
0
  6
ByLayer
 62
  256
370
   -1
100
AcDbCircle
 10
105
 20
165
 40
3.5
  0
CIRCLE
  5
16B
100
AcDbEntity
  8
0
  6
ByLayer
 62
  256
370
   -1
100
AcDbCircle
 10
105
 20
135
 40
3.5
  0
CIRCLE
  5
16C
100
AcDbEntity
  8
0
  6
ByLayer
 62
  256
370
   -1
100
AcDbCircle
 10
75
 20
105
 40
3.5
  0
CIRCLE
  5
16D
100
AcDbEntity
  8
0
  6
ByLayer
 62
  256
370
   -1
100
AcDbCircle
 10
105
 20
105
 40
3.5
  0
CIRCLE
  5
16E
100
AcDbEntity
  8
0
  6
ByLayer
 62
  256
370
   -1
100
AcDbCircle
 10
135
 20
165
 40
3.5
  0
CIRCLE
  5
16F
100
AcDbEntity
  8
0
  6
ByLayer
 62
  256
370
   -1
100
AcDbCircle
 10
165
 20
165
 40
3.5
  0
CIRCLE
  5
170
100
AcDbEntity
  8
0
  6
ByLayer
 62
  256
370
   -1
100
AcDbCircle
 10
135
 20
135
 40
3.5
  0
CIRCLE
  5
171
100
AcDbEntity
  8
0
  6
ByLayer
 62
  256
370
   -1
100
AcDbCircle
 10
165
 20
135
 40
3.5
  0
CIRCLE
  5
172
100
AcDbEntity
  8
0
  6
ByLayer
 62
  256
370
   -1
100
AcDbCircle
 10
135
 20
105
 40
3.5
  0
CIRCLE
  5
173
100
AcDbEntity
  8
0
  6
ByLayer
 62
  256
370
   -1
100
AcDbCircle
 10
165
 20
75
 40
3.5
  0
CIRCLE
  5
174
100
AcDbEntity
  8
0
  6
ByLayer
 62
  256
370
   -1
100
AcDbCircle
 10
165
 20
105
 40
3.5
  0
CIRCLE
  5
175
100
AcDbEntity
  8
0
  6
ByLayer
 62
  256
370
   -1
100
AcDbCircle
 10
15
 20
15
 40
3.5
  0
CIRCLE
  5
176
100
AcDbEntity
  8
0
  6
ByLayer
 62
  256
370
   -1
100
AcDbCircle
 10
15
 20
45
 40
3.5
  0
CIRCLE
  5
177
100
AcDbEntity
  8
0
  6
ByLayer
 62
  256
370
   -1
100
AcDbCircle
 10
45
 20
165
 40
3.5
  0
CIRCLE
  5
178
100
AcDbEntity
  8
0
  6
ByLayer
 62
  256
370
   -1
100
AcDbCircle
 10
75
 20
45
 40
3.5
  0
CIRCLE
  5
179
100
AcDbEntity
  8
0
  6
ByLayer
 62
  256
370
   -1
100
AcDbCircle
 10
75
 20
15
 40
3.5
  0
CIRCLE
  5
17A
100
AcDbEntity
  8
0
  6
ByLayer
 62
  256
370
   -1
100
AcDbCircle
 10
105
 20
45
 40
3.5
  0
CIRCLE
  5
17B
100
AcDbEntity
  8
0
  6
ByLayer
 62
  256
370
   -1
100
AcDbCircle
 10
105
 20
15
 40
3.5
  0
CIRCLE
  5
17C
100
AcDbEntity
  8
0
  6
ByLayer
 62
  256
370
   -1
100
AcDbCircle
 10
165
 20
45
 40
3.5
  0
CIRCLE
  5
17D
100
AcDbEntity
  8
0
  6
ByLayer
 62
  256
370
   -1
100
AcDbCircle
 10
165
 20
15
 40
3.5
  0
DIMENSION
  5
17E
100
AcDbEntity
  8
0
  6
ByLayer
 62
  256
370
   -1
100
AcDbDimension
  2
*D17
 10
41.50042359271023
 20
104.9455484661293
 30
0
 11
44.97082953542642
 21
106.8747730753338
 31
0
 70
   35
 71
    5
 72
    0
  3
Standard
 53
0
210
0
220
0
230
1
100
AcDbDiametricDimension
 15
48.49957640728977
 25
105.0544515338707
 35
0
 40
0
  0
CIRCLE
  5
17F
100
AcDbEntity
  8
1 - Spacer
  6
ByLayer
 62
  256
370
   -1
100
AcDbCircle
 10
15
 20
165
 40
7.5
  0
CIRCLE
  5
180
100
AcDbEntity
  8
1 - Spacer
  6
ByLayer
 62
  256
370
   -1
100
AcDbCircle
 10
15
 20
135
 40
7.5
  0
CIRCLE
  5
181
100
AcDbEntity
  8
1 - Spacer
  6
ByLayer
 62
  256
370
   -1
100
AcDbCircle
 10
15
 20
105
 40
7.5
  0
CIRCLE
  5
182
100
AcDbEntity
  8
1 - Spacer
  6
ByLayer
 62
  256
370
   -1
100
AcDbCircle
 10
15
 20
75
 40
7.5
  0
CIRCLE
  5
183
100
AcDbEntity
  8
1 - Spacer
  6
ByLayer
 62
  256
370
   -1
100
AcDbCircle
 10
15
 20
45
 40
7.5
  0
CIRCLE
  5
184
100
AcDbEntity
  8
1 - Spacer
  6
ByLayer
 62
  256
370
   -1
100
AcDbCircle
 10
15
 20
15
 40
7.5
  0
CIRCLE
  5
185
100
AcDbEntity
  8
1 - Spacer
  6
ByLayer
 62
  256
370
   -1
100
AcDbCircle
 10
45
 20
165
 40
7.5
  0
CIRCLE
  5
186
100
AcDbEntity
  8
1 - Spacer
  6
ByLayer
 62
  256
370
   -1
100
AcDbCircle
 10
45
 20
135
 40
7.5
  0
CIRCLE
  5
187
100
AcDbEntity
  8
1 - Spacer
  6
ByLayer
 62
  256
370
   -1
100
AcDbCircle
 10
45
 20
105
 40
7.5
  0
CIRCLE
  5
188
100
AcDbEntity
  8
1 - Spacer
  6
ByLayer
 62
  256
370
   -1
100
AcDbCircle
 10
45
 20
75
 40
7.5
  0
CIRCLE
  5
189
100
AcDbEntity
  8
1 - Spacer
  6
ByLayer
 62
  256
370
   -1
100
AcDbCircle
 10
75
 20
165
 40
7.5
  0
CIRCLE
  5
18A
100
AcDbEntity
  8
1 - Spacer
  6
ByLayer
 62
  256
370
   -1
100
AcDbCircle
 10
75
 20
135
 40
7.5
  0
CIRCLE
  5
18B
100
AcDbEntity
  8
1 - Spacer
  6
ByLayer
 62
  256
370
   -1
100
AcDbCircle
 10
75
 20
105
 40
7.5
  0
CIRCLE
  5
18C
100
AcDbEntity
  8
1 - Spacer
  6
ByLayer
 62
  256
370
   -1
100
AcDbCircle
 10
75
 20
75
 40
7.5
  0
CIRCLE
  5
18D
100
AcDbEntity
  8
1 - Spacer
  6
ByLayer
 62
  256
370
   -1
100
AcDbCircle
 10
75
 20
45
 40
7.5
  0
CIRCLE
  5
18E
100
AcDbEntity
  8
1 - Spacer
  6
ByLayer
 62
  256
370
   -1
100
AcDbCircle
 10
75
 20
15
 40
7.5
  0
CIRCLE
  5
18F
100
AcDbEntity
  8
1 - Spacer
  6
ByLayer
 62
  256
370
   -1
100
AcDbCircle
 10
105
 20
165
 40
7.5
  0
CIRCLE
  5
190
100
AcDbEntity
  8
1 - Spacer
  6
ByLayer
 62
  256
370
   -1
100
AcDbCircle
 10
105
 20
135
 40
7.5
  0
CIRCLE
  5
191
100
AcDbEntity
  8
1 - Spacer
  6
ByLayer
 62
  256
370
   -1
100
AcDbCircle
 10
105
 20
105
 40
7.5
  0
CIRCLE
  5
192
100
AcDbEntity
  8
1 - Spacer
  6
ByLayer
 62
  256
370
   -1
100
AcDbCircle
 10
105
 20
75
 40
7.5
  0
CIRCLE
  5
193
100
AcDbEntity
  8
1 - Spacer
  6
ByLayer
 62
  256
370
   -1
100
AcDbCircle
 10
105
 20
45
 40
7.5
  0
CIRCLE
  5
194
100
AcDbEntity
  8
1 - Spacer
  6
ByLayer
 62
  256
370
   -1
100
AcDbCircle
 10
105
 20
15
 40
7.5
  0
CIRCLE
  5
195
100
AcDbEntity
  8
1 - Spacer
  6
ByLayer
 62
  256
370
   -1
100
AcDbCircle
 10
135
 20
135
 40
7.5
  0
CIRCLE
  5
196
100
AcDbEntity
  8
1 - Spacer
  6
ByLayer
 62
  256
370
   -1
100
AcDbCircle
 10
135
 20
165
 40
7.5
  0
CIRCLE
  5
197
100
AcDbEntity
  8
1 - Spacer
  6
ByLayer
 62
  256
370
   -1
100
AcDbCircle
 10
135
 20
105
 40
7.5
  0
CIRCLE
  5
198
100
AcDbEntity
  8
1 - Spacer
  6
ByLayer
 62
  256
370
   -1
100
AcDbCircle
 10
135
 20
75
 40
7.5
  0
CIRCLE
  5
199
100
AcDbEntity
  8
1 - Spacer
  6
ByLayer
 62
  256
370
   -1
100
AcDbCircle
 10
165
 20
165
 40
7.5
  0
CIRCLE
  5
19A
100
AcDbEntity
  8
1 - Spacer
  6
ByLayer
 62
  256
370
   -1
100
AcDbCircle
 10
165
 20
135
 40
7.5
  0
CIRCLE
  5
19B
100
AcDbEntity
  8
1 - Spacer
  6
ByLayer
 62
  256
370
   -1
100
AcDbCircle
 10
165
 20
105
 40
7.5
  0
CIRCLE
  5
19C
100
AcDbEntity
  8
1 - Spacer
  6
ByLayer
 62
  256
370
   -1
100
AcDbCircle
 10
165
 20
75
 40
7.5
  0
CIRCLE
  5
19D
100
AcDbEntity
  8
1 - Spacer
  6
ByLayer
 62
  256
370
   -1
100
AcDbCircle
 10
165
 20
45
 40
7.5
  0
CIRCLE
  5
19E
100
AcDbEntity
  8
1 - Spacer
  6
ByLayer
 62
  256
370
   -1
100
AcDbCircle
 10
165
 20
15
 40
7.5
  0
DIMENSION
  5
19F
100
AcDbEntity
  8
1 - Spacer
  6
ByLayer
 62
  256
370
   -1
100
AcDbDimension
  2
*D18
 10
7.513359067233792
 20
104.5525544236116
 30
0
 11
14.88813860590291
 21
106.8716602331915
 31
0
 70
   35
 71
    5
 72
    0
  3
Standard
 53
0
210
0
220
0
230
1
100
AcDbDiametricDimension
 15
22.48664093276621
 25
105.4474455763884
 35
0
 40
0
  0
DIMENSION
  5
1A0
100
AcDbEntity
  8
2 - panels
  6
ByLayer
 62
  256
370
   -1
100
AcDbDimension
  2
*D19
 10
161.500077430678
 20
15.02328108139238
 30
0
 11
165.0124720078888
 21
16.87495851927962
 31
0
 70
   35
 71
    5
 72
    0
  3
Standard
 53
0
210
0
220
0
230
1
100
AcDbDiametricDimension
 15
168.499922569322
 25
14.97671891860762
 35
0
 40
0
  0
DIMENSION
  5
1A1
100
AcDbEntity
  8
2 - panels
  6
ByLayer
 62
  256
370
   -1
100
AcDbDimension
  2
*D20
 10
196.8697729988053
 20
58
 30
0
 11
194.9947729988053
 21
30
 31
0
 70
   32
 71
    5
 72
    0
  3
Standard
 53
0
210
0
220
0
230
1
100
AcDbAlignedDimension
 13
178
 23
2
 33
0
 14
178
 24
58
 34
0
 50
90
100
AcDbRotatedDimension
  0
DIMENSION
  5
1A2
100
AcDbEntity
  8
2 - panels
  6
ByLayer
 62
  256
370
   -1
100
AcDbDimension
  2
*D21
 10
178
 20
-12.09080047789725
 30
0
 11
90
 21
-10.21580047789725
 31
0
 70
   32
 71
    5
 72
    0
  3
Standard
 53
0
210
0
220
0
230
1
100
AcDbAlignedDimension
 13
2
 23
2
 33
0
 14
178
 24
2
 34
0
100
AcDbRotatedDimension
  0
DIMENSION
  5
1A3
100
AcDbEntity
  8
2 - panels
  6
ByLayer
 62
  256
370
   -1
100
AcDbDimension
  2
*D22
 10
178
 20
186.8817204301075
 30
0
 11
150
 21
188.7567204301075
 31
0
 70
   32
 71
    5
 72
    0
  3
Standard
 53
0
210
0
220
0
230
1
100
AcDbAlignedDimension
 13
122
 23
178
 33
0
 14
178
 24
178
 34
0
100
AcDbRotatedDimension
  0
DIMENSION
  5
1A4
100
AcDbEntity
  8
2 - panels
  6
ByLayer
 62
  256
370
   -1
100
AcDbDimension
  2
*D23
 10
197.1326164874552
 20
178
 30
0
 11
195.2576164874552
 21
120
 31
0
 70
   32
 71
    5
 72
    0
  3
Standard
 53
0
210
0
220
0
230
1
100
AcDbAlignedDimension
 13
178
 23
62
 33
0
 14
178
 24
178
 34
0
 50
90
100
AcDbRotatedDimension
  0
DIMENSION
  5
1A5
100
AcDbEntity
  8
0
  6
ByLayer
 62
  256
370
   -1
100
AcDbDimension
  2
*D24
 10
180
 20
-38.72932254318449
 30
0
 11
90
 21
-36.85432254318449
 31
0
 70
   32
 71
    5
 72
    0
  3
Standard
 53
0
210
0
220
0
230
1
100
AcDbAlignedDimension
 13
0
 23
0
 33
0
 14
180
 24
0
 34
0
100
AcDbRotatedDimension
  0
ENDSEC
  0
SECTION
  2
OBJECTS
  0
DICTIONARY
  5
C
330
0
100
AcDbDictionary
281
    1
  3
ACAD_GROUP
350
D
  0
DICTIONARY
  5
D
330
C
100
AcDbDictionary
281
    1
  0
ENDSEC
  0
EOF
